<svg width="20" height="20" viewBox="0 0 20 20" fill="none" xmlns="http://www.w3.org/2000/svg">
<path d="M16.0722 12.05C15.8981 11.8752 15.6911 11.7365 15.4632 11.6419C15.2352 11.5473 14.9909 11.4986 14.7441 11.4986C14.4973 11.4986 14.253 11.5473 14.0251 11.6419C13.7972 11.7365 13.5902 11.8752 13.416 12.05L12.5097 12.9563C11.4894 12.3087 10.544 11.5499 9.69099 10.6938C8.83489 9.84077 8.07609 8.8954 7.42849 7.87503L8.33474 6.96878C8.50954 6.79459 8.64824 6.5876 8.74287 6.35969C8.83751 6.13178 8.88622 5.88743 8.88622 5.64065C8.88622 5.39388 8.83751 5.14953 8.74287 4.92162C8.64824 4.69371 8.50954 4.48672 8.33474 4.31253L6.566 2.55003C6.39426 2.37465 6.18902 2.23559 5.96248 2.1411C5.73593 2.04662 5.4927 1.99864 5.24725 2.00003C5.00005 1.99942 4.75517 2.04771 4.5267 2.1421C4.29823 2.23649 4.09068 2.37512 3.916 2.55003L3.066 3.39378C2.66085 3.82938 2.35848 4.35025 2.1811 4.91807C2.00372 5.4859 1.95585 6.08627 2.041 6.67503C2.241 9.01878 3.7785 11.8375 6.14725 14.2125C8.516 16.5875 11.366 18.1188 13.7097 18.3438C13.8846 18.3531 14.0599 18.3531 14.2347 18.3438C14.7393 18.365 15.2429 18.2852 15.7162 18.1092C16.1895 17.9332 16.6229 17.6645 16.991 17.3188L17.8347 16.4688C18.0097 16.2941 18.1483 16.0865 18.2427 15.8581C18.3371 15.6296 18.3854 15.3847 18.3847 15.1375C18.3861 14.8921 18.3382 14.6488 18.2437 14.4223C18.1492 14.1958 18.0101 13.9905 17.8347 13.8188L16.0722 12.05Z" fill="#282828"/>
</svg>
