<svg width="40" height="40" viewBox="0 0 40 40" fill="none" xmlns="http://www.w3.org/2000/svg">
<path d="M14.0417 26.3646C14.0417 27.8752 12.8127 29.1042 11.3021 29.1042H4.9375C4.41975 29.1042 4 29.5239 4 30.0417V35.0625C4 35.5802 4.41975 36 4.9375 36H35.0625C35.5802 36 36 35.5802 36 35.0625V30.0417C36 29.5239 35.5802 29.1042 35.0625 29.1042H28.6979C27.1874 29.1042 25.9584 27.8752 25.9584 26.3646V20.9375H14.0417V26.3646Z" fill="black"/>
<path d="M28.6979 10.8958H35.0625C35.5802 10.8958 36 10.4761 36 9.95831V4.9375C36 4.41975 35.5802 4 35.0625 4H4.9375C4.41975 4 4 4.41975 4 4.9375V9.95831C4 10.4761 4.41975 10.8958 4.9375 10.8958H11.3021C12.8126 10.8958 14.0416 12.1248 14.0416 13.6354V19.0625H25.9583V13.6354C25.9583 12.1248 27.1873 10.8958 28.6979 10.8958Z" fill="black"/>
</svg>
