<svg width="40" height="40" viewBox="0 0 40 40" fill="none" xmlns="http://www.w3.org/2000/svg">
<g clip-path="url(#clip0_223_1643)">
<path d="M29.9748 17.56C30.5515 18.035 31.2798 18.3333 32.0832 18.3333C33.9215 18.3333 35.4165 16.8383 35.4165 15C35.4165 13.1617 33.9215 11.6667 32.0832 11.6667C31.4582 11.6667 30.8798 11.85 30.3782 12.1517L24.4548 8.88833C24.7932 8.21667 24.9998 7.46833 24.9998 6.66667H30.4165C32.0248 6.66667 33.3332 5.35833 33.3332 3.75V1.25C33.3332 0.56 32.7732 0 32.0832 0H7.9165C7.2265 0 6.6665 0.56 6.6665 1.25V3.75C6.6665 5.35833 7.97484 6.66667 9.58317 6.66667H14.9998C14.9998 9.42333 17.2432 11.6667 19.9998 11.6667C20.6748 11.6667 21.3165 11.5283 21.9032 11.285C21.9065 11.2867 21.9082 11.29 21.9115 11.2917L28.0965 14.6983L20.2532 17.6017C19.5982 17.845 19.1648 18.4683 19.1648 19.165V23.3333H18.3332C17.4115 23.3333 16.6665 24.08 16.6665 25C16.6665 25.92 17.4115 26.6667 18.3332 26.6667H23.3332C24.2548 26.6667 24.9998 25.92 24.9998 25C24.9998 24.08 24.2548 23.3333 23.3332 23.3333H22.4998V20.3267L29.9748 17.56Z" fill="black"/>
<path d="M34.1667 28.3333H5.83333C2.61667 28.3333 0 30.9499 0 34.1666C0 37.3833 2.61667 39.9999 5.83333 39.9999H34.1667C37.3833 39.9999 40 37.3833 40 34.1666C40 30.9499 37.3833 28.3333 34.1667 28.3333ZM7.5 36.6666C6.12 36.6666 5 35.5449 5 34.1666C5 32.7883 6.12 31.6666 7.5 31.6666C8.88 31.6666 10 32.7883 10 34.1666C10 35.5449 8.88 36.6666 7.5 36.6666ZM15.8333 36.6666C14.4533 36.6666 13.3333 35.5449 13.3333 34.1666C13.3333 32.7883 14.4533 31.6666 15.8333 31.6666C17.2133 31.6666 18.3333 32.7883 18.3333 34.1666C18.3333 35.5449 17.2133 36.6666 15.8333 36.6666ZM24.1667 36.6666C22.7867 36.6666 21.6667 35.5449 21.6667 34.1666C21.6667 32.7883 22.7867 31.6666 24.1667 31.6666C25.5467 31.6666 26.6667 32.7883 26.6667 34.1666C26.6667 35.5449 25.5467 36.6666 24.1667 36.6666ZM32.5 36.6666C31.12 36.6666 30 35.5449 30 34.1666C30 32.7883 31.12 31.6666 32.5 31.6666C33.88 31.6666 35 32.7883 35 34.1666C35 35.5449 33.88 36.6666 32.5 36.6666Z" fill="black"/>
</g>
<defs>
<clipPath id="clip0_223_1643">
<rect width="40" height="40" fill="white"/>
</clipPath>
</defs>
</svg>
