<svg width="40" height="40" viewBox="0 0 40 40" fill="none" xmlns="http://www.w3.org/2000/svg">
<path d="M30.2656 31.9531C29.0877 31.9531 28.0772 32.6813 27.6591 33.7109H25.2031V35.8203H27.6591C28.0772 36.85 29.0877 37.5781 30.2656 37.5781C31.8164 37.5781 33.0781 36.3164 33.0781 34.7656C33.0781 33.2148 31.8164 31.9531 30.2656 31.9531Z" fill="black"/>
<path d="M35.1875 25.9766C34.7252 25.9766 34.289 26.0893 33.9039 26.2878L31.2924 24.1116C31.1028 23.9537 30.8639 23.8672 30.6172 23.8672H25.2031V25.9766H30.2353L32.525 27.8847C32.4283 28.1687 32.375 28.4727 32.375 28.7891C32.375 30.3399 33.6367 31.6016 35.1875 31.6016C36.7383 31.6016 38 30.3399 38 28.7891C38 27.2383 36.7383 25.9766 35.1875 25.9766Z" fill="black"/>
<path d="M35.1875 17.1875C34.0096 17.1875 32.9991 17.9157 32.5809 18.9453H25.2031V21.0547H32.5809C32.9991 22.0843 34.0096 22.8125 35.1875 22.8125C36.7383 22.8125 38 21.5508 38 20C38 18.4492 36.7383 17.1875 35.1875 17.1875Z" fill="black"/>
<path d="M31.2924 15.8883L33.9039 13.7121C34.289 13.9107 34.7252 14.0234 35.1875 14.0234C36.7383 14.0234 38 12.7618 38 11.2109C38 9.66013 36.7383 8.39844 35.1875 8.39844C33.6367 8.39844 32.375 9.66013 32.375 11.2109C32.375 11.5273 32.4283 11.8313 32.525 12.1153L30.2353 14.0234H25.2031V16.1328H30.6172C30.8639 16.1328 31.1028 16.0463 31.2924 15.8883Z" fill="black"/>
<path d="M30.2656 8.04688C31.8164 8.04688 33.0781 6.78519 33.0781 5.23438C33.0781 3.68356 31.8164 2.42188 30.2656 2.42188C29.0877 2.42188 28.0772 3.15003 27.6591 4.17969H25.2031V6.28906H27.6591C28.0772 7.31872 29.0877 8.04688 30.2656 8.04688Z" fill="black"/>
<path d="M12.5469 20C12.5469 24.0709 15.8588 27.3828 19.9297 27.3828C21.0614 27.3828 22.1342 27.1265 23.0938 26.6695V13.3305C22.1342 12.8735 21.0614 12.6172 19.9297 12.6172C15.8588 12.6172 12.5469 15.9291 12.5469 20Z" fill="black"/>
<path d="M22.0391 2.07031H17.8203C17.2378 2.07031 16.7656 2.54253 16.7656 3.125V4.49785C14.7865 4.90102 12.8926 5.68564 11.2056 6.80122L10.2346 5.83027C9.82269 5.41838 9.15493 5.41838 8.74304 5.83027L5.75996 8.81335C5.34807 9.22517 5.34807 9.893 5.75996 10.3049L6.73091 11.2759C5.61533 12.9629 4.83071 14.8569 4.42754 16.8359H3.05469C2.47222 16.8359 2 17.3082 2 17.8906V22.1094C2 22.6918 2.47222 23.1641 3.05469 23.1641H4.42754C4.83071 25.1431 5.61533 27.0371 6.73091 28.7242L5.75989 29.6952C5.5621 29.893 5.45101 30.1612 5.45101 30.4409C5.45101 30.7206 5.5621 30.9888 5.75989 31.1866L8.74304 34.1697C9.15493 34.5816 9.82269 34.5816 10.2346 34.1697L11.2056 33.1988C12.8926 34.3144 14.7865 35.0989 16.7656 35.5021V36.875C16.7656 37.4575 17.2378 37.9297 17.8203 37.9297H22.0391C22.6215 37.9297 23.0938 37.4575 23.0938 36.875V28.9492C22.1036 29.3004 21.0387 29.4922 19.9297 29.4922C14.6957 29.4922 10.4375 25.234 10.4375 20C10.4375 14.766 14.6957 10.5078 19.9297 10.5078C21.0387 10.5078 22.1036 10.6996 23.0938 11.0508V3.125C23.0938 2.54253 22.6215 2.07031 22.0391 2.07031Z" fill="black"/>
</svg>
