<svg width="40" height="40" viewBox="0 0 40 40" fill="none" xmlns="http://www.w3.org/2000/svg">
<g clip-path="url(#clip0_223_1619)">
<path d="M38.5595 33.7398L33.9723 23.9028C31.4394 27.5909 27.4846 30.217 22.9067 31.0134L26.7467 39.2478C27.2377 40.3015 28.7571 40.2312 29.1524 39.1431L31.1206 33.7365L31.5263 33.5474L36.9329 35.5156C38.0178 35.9137 39.0498 34.7893 38.5595 33.7398Z" fill="black"/>
<path d="M20.0003 0C12.0951 0 5.66309 6.43164 5.66309 14.3372C5.66309 22.2427 12.0952 28.6744 20.0003 28.6744C27.9054 28.6744 34.3375 22.2427 34.3375 14.3372C34.3375 6.43164 27.9055 0 20.0003 0ZM26.9764 13.2837L24.4341 15.762L25.0349 19.2623C25.2186 20.331 24.0925 21.1339 23.1434 20.6362L20.0004 18.984L16.8573 20.6361C15.9027 21.1373 14.7832 20.325 14.9658 19.2623L15.5666 15.762L13.0243 13.2837C12.2517 12.5304 12.6805 11.2155 13.7466 11.0605L17.2604 10.5502L18.832 7.36633C19.3075 6.39945 20.6929 6.39859 21.1689 7.36633L22.7405 10.5502L26.2543 11.0605C27.3203 11.2154 27.749 12.5304 26.9764 13.2837Z" fill="black"/>
<path d="M6.02784 23.9028L1.44065 33.7398C0.948071 34.7942 1.98932 35.9124 3.06729 35.5153L8.47385 33.5471L8.87948 33.7363L10.8477 39.1429C11.2423 40.2288 12.7614 40.3036 13.2534 39.2478L17.0934 31.0133C12.5155 30.2171 8.56081 27.591 6.02784 23.9028Z" fill="black"/>
</g>
<defs>
<clipPath id="clip0_223_1619">
<rect width="40" height="40" fill="white"/>
</clipPath>
</defs>
</svg>
