<svg width="40" height="40" viewBox="0 0 40 40" fill="none" xmlns="http://www.w3.org/2000/svg">
<g clip-path="url(#clip0_223_1660)">
<path d="M28.8306 17.2593H36.1764V30.2317H28.8306V17.2593Z" fill="black"/>
<path d="M16.3267 17.2593H23.6725V30.2317H16.3267V17.2593Z" fill="black"/>
<path d="M37.583 32.5759C36.4029 32.5759 3.8449 32.5759 2.41668 32.5759C1.12397 32.5759 0.0722656 33.6276 0.0722656 34.9203V37.6555C0.0722656 38.9482 1.12397 39.9999 2.41668 39.9999H37.583C38.8757 39.9999 39.9274 38.9482 39.9274 37.6555V34.9203C39.9274 33.6276 38.8757 32.5759 37.583 32.5759Z" fill="black"/>
<path d="M38.4582 7.35985C20.4004 -0.0237372 20.8836 0.173741 20.8706 0.168505C20.3134 -0.0544488 19.694 -0.0589813 19.1208 0.171788L1.54143 7.35985C0.648758 7.71902 0.0722656 8.57223 0.0722656 9.53477V12.5704C0.0722656 13.8631 1.12397 14.9148 2.41668 14.9148H37.583C38.8757 14.9148 39.9274 13.8631 39.9274 12.5704V9.53477C39.9274 8.57223 39.3509 7.71902 38.4582 7.35985ZM21.172 8.74111C21.172 9.38848 20.6472 9.91331 19.9998 9.91331C19.3525 9.91331 18.8276 9.38848 18.8276 8.74111V6.24039C18.8276 5.59302 19.3525 5.06818 19.9998 5.06818C20.6472 5.06818 21.172 5.59302 21.172 6.24039V8.74111Z" fill="black"/>
<path d="M3.82324 17.2593H11.1691V30.2317H3.82324V17.2593Z" fill="black"/>
</g>
<defs>
<clipPath id="clip0_223_1660">
<rect width="40" height="40" fill="white"/>
</clipPath>
</defs>
</svg>
