<svg width="40" height="40" viewBox="0 0 40 40" fill="none" xmlns="http://www.w3.org/2000/svg">
<g clip-path="url(#clip0_223_1634)">
<path d="M18.0469 21.9531H18.4375C19.0848 21.9531 19.6094 22.4777 19.6094 23.125C19.6094 23.7723 19.0848 24.2969 18.4375 24.2969H15.3125C14.6652 24.2969 14.1406 23.7723 14.1406 23.125C14.1406 22.4777 14.6652 21.9531 15.3125 21.9531H15.7031V14.9219H8.67188V21.9531H10.625C11.2723 21.9531 11.7969 22.4777 11.7969 23.125C11.7969 23.7723 11.2723 24.2969 10.625 24.2969H8.67188V31.3281H11.1334C11.6779 28.6569 14.0454 26.6406 16.875 26.6406C17.5223 26.6406 18.0469 27.1652 18.0469 27.8125V31.3281H25.0781V24.2969H23.125C22.4777 24.2969 21.9531 23.7723 21.9531 23.125C21.9531 22.4777 22.4777 21.9531 23.125 21.9531H25.0781V14.9219H18.0469V21.9531Z" fill="black"/>
<path d="M36.2891 32.5781H34.9219C32.9803 32.5781 31.4062 31.004 31.4062 29.0625V6.25H1.17188C0.524597 6.25 0 6.7746 0 7.42188V38.8281C0 39.4754 0.524597 40 1.17188 40H36.2891C38.3386 40 40 38.3386 40 36.2891C40 34.2395 38.3386 32.5781 36.2891 32.5781ZM27.4219 32.5C27.4219 33.1473 26.8973 33.6719 26.25 33.6719H16.875C16.2277 33.6719 15.7031 33.1473 15.7031 32.5V29.1852C14.339 29.6689 13.3594 30.9723 13.3594 32.5C13.3594 33.1473 12.8348 33.6719 12.1875 33.6719H7.5C6.85272 33.6719 6.32812 33.1473 6.32812 32.5V13.75C6.32812 13.1027 6.85272 12.5781 7.5 12.5781H26.25C26.8973 12.5781 27.4219 13.1027 27.4219 13.75V32.5Z" fill="black"/>
<path d="M35.7031 0H34.9219C34.2746 0 33.75 0.524597 33.75 1.17188V29.0625C33.75 29.7098 34.2746 30.2344 34.9219 30.2344H36.2891C37.6868 30.2344 38.974 30.7117 40 31.51V4.29688C40 1.92383 38.0762 0 35.7031 0Z" fill="black"/>
</g>
<defs>
<clipPath id="clip0_223_1634">
<rect width="40" height="40" fill="white"/>
</clipPath>
</defs>
</svg>
