<svg width="40" height="40" viewBox="0 0 40 40" fill="none" xmlns="http://www.w3.org/2000/svg">
<g clip-path="url(#clip0_223_1668)">
<path d="M20.1562 31.6352C20.1565 29.4927 20.7812 27.3968 21.9539 25.6038C23.1267 23.8108 24.7966 22.3985 26.7594 21.5396C28.7222 20.6808 30.8927 20.4126 33.0055 20.768C35.1183 21.1234 37.0817 22.0869 38.6555 23.5406C38.7076 19.7745 38.6763 16.0083 38.5617 12.2422C38.4992 9.65469 37.0383 7.05704 34.5906 5.77344C33.3328 5.1086 32.0297 4.46876 30.7117 3.86251C25.5039 5.54688 19.4047 7.76876 13.2531 10.5195C12.6617 10.781 12.155 11.2024 11.7902 11.7363C11.4254 12.2702 11.2169 12.8954 11.1883 13.5414C11.0922 16.5102 11.0625 19.5742 11.1016 22.6039C11.1047 22.6928 11.0793 22.7803 11.029 22.8536C10.9787 22.927 10.9063 22.9822 10.8223 23.0113C10.7383 23.0405 10.6471 23.0419 10.5623 23.0154C10.4774 22.9888 10.4033 22.9358 10.3508 22.8641C9.69974 22.0307 9.0638 21.2068 8.44297 20.3922C8.39714 20.3285 8.32903 20.2844 8.25217 20.2686C8.17532 20.2529 8.09534 20.2666 8.02813 20.307C7.54531 20.5945 7.07109 20.8781 6.60547 21.1578C6.34453 21.3141 6.02344 21.1055 6.02188 20.7844C6.00625 17.7664 6.08125 14.7406 6.24297 11.8078C6.31094 10.5711 7.08672 9.40626 8.23438 8.83907C14.1344 5.92501 20.4289 3.54454 25.8 1.78282C24.55 1.29376 23.307 0.845319 22.0937 0.420319C20.4578 -0.141408 18.6812 -0.141408 17.0453 0.420319C12.9969 1.81719 8.57578 3.64063 4.54766 5.77344C2.10078 7.05704 0.641406 9.65469 0.576562 12.2422C0.417188 17.4141 0.417188 22.5859 0.576562 27.7578C0.639062 30.3453 2.10078 32.943 4.54766 34.2266C8.57578 36.3594 12.9969 38.1828 17.0477 39.5789C18.6836 40.1406 20.4602 40.1406 22.0961 39.5789C22.4497 39.457 22.8068 39.3313 23.1672 39.2016C21.2275 37.1607 20.1491 34.4507 20.1562 31.6352Z" fill="black"/>
<path d="M31.1775 23.271C29.5231 23.2712 27.9059 23.7619 26.5304 24.6812C25.1549 25.6004 24.0829 26.9069 23.4499 28.4355C22.8169 29.964 22.6514 31.6459 22.9744 33.2685C23.2973 34.8911 24.0941 36.3815 25.264 37.5512C26.434 38.721 27.9245 39.5175 29.5472 39.8401C31.1698 40.1627 32.8517 39.9969 34.3801 39.3636C35.9085 38.7304 37.2149 37.6581 38.1339 36.2824C39.0529 34.9068 39.5433 33.2895 39.5432 31.6351C39.5431 30.5366 39.3266 29.4489 38.9061 28.434C38.4857 27.4192 37.8694 26.4971 37.0926 25.7204C36.3158 24.9438 35.3936 24.3277 34.3787 23.9074C33.3638 23.4872 32.276 23.2709 31.1775 23.271ZM35.9486 30.2507L30.9205 35.5304C30.7837 35.6743 30.6192 35.7891 30.4368 35.8677C30.2545 35.9464 30.0582 35.9874 29.8596 35.9882H29.8525C29.6551 35.9881 29.4597 35.9484 29.2779 35.8715C29.0961 35.7946 28.9315 35.6821 28.7939 35.5405L26.126 32.7921C25.8535 32.5113 25.7037 32.1338 25.7096 31.7426C25.7155 31.3515 25.8765 30.9786 26.1572 30.7062C26.438 30.4337 26.8155 30.2839 27.2067 30.2898C27.5979 30.2956 27.9707 30.4566 28.2432 30.7374L29.8439 32.3851L33.8135 28.2163C34.0864 27.9489 34.4525 27.7978 34.8346 27.7949C35.2168 27.792 35.5851 27.9375 35.862 28.2008C36.139 28.4641 36.303 28.8246 36.3194 29.2064C36.3359 29.5882 36.2035 29.9614 35.9502 30.2476L35.9486 30.2507Z" fill="black"/>
</g>
<defs>
<clipPath id="clip0_223_1668">
<rect width="40" height="40" fill="white"/>
</clipPath>
</defs>
</svg>
