<svg width="40" height="40" viewBox="0 0 40 40" fill="none" xmlns="http://www.w3.org/2000/svg">
<path d="M25.8059 22.4292C25.8059 25.6307 23.2015 28.2351 20 28.2351C16.7985 28.2351 14.1951 25.6307 14.1951 22.4292C14.1951 19.2276 16.7985 16.6232 20 16.6232C23.2015 16.6232 25.8059 19.2286 25.8059 22.4292ZM38 14.185V30.6753C38 32.8737 36.2176 34.6561 34.0192 34.6561H5.98076C3.78238 34.6561 2 32.8737 2 30.6753V14.185C2 11.9866 3.78238 10.2043 5.98076 10.2043H10.8771V8.82691C10.8771 6.90321 12.4356 5.34375 14.3603 5.34375H25.6397C27.5644 5.34375 29.1229 6.90321 29.1229 8.82691V10.2033H34.0192C36.2176 10.2043 38 11.9866 38 14.185ZM28.7915 22.4292C28.7915 17.5816 24.8476 13.6377 20 13.6377C15.1534 13.6377 11.2095 17.5816 11.2095 22.4292C11.2095 27.2767 15.1534 31.2207 20 31.2207C24.8476 31.2207 28.7915 27.2767 28.7915 22.4292Z" fill="black"/>
</svg>
