<svg width="40" height="40" viewBox="0 0 40 40" fill="none" xmlns="http://www.w3.org/2000/svg">
<g clip-path="url(#clip0_223_1664)">
<path d="M39.1509 21.2946L30.9477 18.9509C30.7372 18.8914 30.5129 18.8914 30.3023 18.9509L22.0991 21.2946C21.5979 21.4389 21.25 21.8989 21.25 22.4219V27.9529C21.25 33.501 24.9739 38.4368 30.3045 39.9554C30.4098 39.9852 30.5174 40 30.625 40C30.7326 40 30.8402 39.9852 30.9455 39.9554C36.2761 38.4368 40 33.501 40 27.9529V22.4219C40 21.8989 39.6521 21.4389 39.1509 21.2946ZM34.9691 27.9379L30.2816 32.6254C30.0527 32.8543 29.7529 32.9688 29.4531 32.9688C29.1534 32.9688 28.8534 32.8543 28.6246 32.6254L26.2809 30.2817C25.8231 29.8239 25.8231 29.0823 26.2809 28.6246C26.7386 28.1668 27.4802 28.1668 27.938 28.6246L29.4531 30.1398L33.3121 26.2808C33.7698 25.8231 34.5115 25.8231 34.9692 26.2808C35.427 26.7386 35.427 27.4802 34.9691 27.9379Z" fill="black"/>
<path d="M8.28125 9.53125C8.92846 9.53125 9.45312 9.00658 9.45312 8.35938C9.45312 7.71217 8.92846 7.1875 8.28125 7.1875C7.63404 7.1875 7.10938 7.71217 7.10938 8.35938C7.10938 9.00658 7.63404 9.53125 8.28125 9.53125Z" fill="black"/>
<path d="M36.4844 0H3.51562C1.57703 0 0 1.57703 0 3.51562V22.4219C0 24.3605 1.57703 25.9375 3.51562 25.9375H18.9062V22.4219C18.9062 20.8632 19.9523 19.4739 21.4514 19.0424L29.6591 16.6975C29.9773 16.6071 30.3 16.5625 30.625 16.5625C30.95 16.5625 31.2727 16.6071 31.584 16.6952C34.9648 17.675 39.0412 18.7938 40 19.1393V3.51562C40 1.57703 38.423 0 36.4844 0ZM8.35938 18.9062H6.01562C5.36789 18.9062 4.84375 18.3821 4.84375 17.7344C4.84375 17.0866 5.36789 16.5625 6.01562 16.5625H8.35938C9.00711 16.5625 9.53125 17.0866 9.53125 17.7344C9.53125 18.3821 9.00711 18.9062 8.35938 18.9062ZM8.28125 11.875C6.34273 11.875 4.76562 10.2979 4.76562 8.35938C4.76562 6.42086 6.34273 4.84375 8.28125 4.84375C10.2198 4.84375 11.7969 6.42086 11.7969 8.35938C11.7969 10.2979 10.2198 11.875 8.28125 11.875ZM15.3906 18.9062H13.0469C12.3991 18.9062 11.875 18.3821 11.875 17.7344C11.875 17.0866 12.3991 16.5625 13.0469 16.5625H15.3906C16.0384 16.5625 16.5625 17.0866 16.5625 17.7344C16.5625 18.3821 16.0384 18.9062 15.3906 18.9062ZM34.1406 9.53125H20.0781C19.4304 9.53125 18.9062 9.00711 18.9062 8.35938C18.9062 7.71164 19.4304 7.1875 20.0781 7.1875H34.1406C34.7884 7.1875 35.3125 7.71164 35.3125 8.35938C35.3125 9.00711 34.7884 9.53125 34.1406 9.53125Z" fill="black"/>
</g>
<defs>
<clipPath id="clip0_223_1664">
<rect width="40" height="40" fill="white"/>
</clipPath>
</defs>
</svg>
