<svg width="40" height="40" viewBox="0 0 40 40" fill="none" xmlns="http://www.w3.org/2000/svg">
<path d="M36.3937 25.229C35.8798 27.9605 34.5095 30.5212 32.4538 32.399C30.3983 34.4475 28.0002 35.6425 25.2595 36.3254C24.403 36.496 23.3752 36.6669 22.5187 36.6669C20.6345 36.6669 18.9215 36.3254 17.2085 35.6425C14.639 34.6182 12.4122 32.7404 10.8705 30.5212C9.67146 28.814 8.81498 26.7655 8.64368 24.5462C8.47238 23.6927 8.81498 23.0099 9.32886 22.327C9.67146 21.644 10.5279 21.3027 11.3844 21.3027H19.6067C20.4632 21.3027 21.1483 20.6199 21.1483 19.7662V11.4014C21.1483 10.5478 21.4908 9.69423 22.1762 9.18209C22.69 8.66996 23.5465 8.32853 24.403 8.49924C26.4585 8.84066 28.514 9.69423 30.3983 10.7185C32.7965 12.2549 34.5095 14.4742 35.5372 17.0349C36.7363 19.5955 36.9075 22.4977 36.3937 25.229Z" fill="black"/>
<path d="M17.8937 6.28001V15.8399C17.8937 16.8642 17.0372 17.7177 16.0094 17.7177H6.24553C5.38905 17.7177 4.53256 17.3764 4.01868 16.6934C3.5048 16.1813 3.3335 15.3278 3.3335 14.6449C3.6761 11.7428 5.04646 9.18212 7.10201 7.13357C9.15758 5.08502 11.727 3.71932 14.639 3.37791C15.3242 3.20719 16.1807 3.54861 16.8658 4.06076C17.3798 4.57289 17.8937 5.42646 17.8937 6.28001Z" fill="black"/>
</svg>
