<svg width="40" height="40" viewBox="0 0 40 40" fill="none" xmlns="http://www.w3.org/2000/svg">
<path d="M35.4845 31.4003C34.689 31.4016 33.9175 31.6724 33.2957 32.1684C32.6739 32.6644 32.2384 33.3564 32.0602 34.1316H27.2097C27.0902 34.1314 26.9757 34.0839 26.8912 33.9994C26.8068 33.915 26.7592 33.8004 26.7591 33.681V28.195C28.4992 25.8043 29.4374 22.9238 29.4392 19.9668C29.4392 19.8849 29.4231 19.8038 29.3918 19.7281C29.3605 19.6525 29.3146 19.5837 29.2566 19.5258C29.1987 19.4679 29.1299 19.4219 29.0543 19.3906C28.9786 19.3593 28.8975 19.3432 28.8156 19.3433H17.2514L6.70215 30.8339C8.76073 32.511 11.2588 33.5596 13.8976 33.8545C14.4259 33.9121 14.9568 33.9413 15.4882 33.9418C18.8283 33.9486 22.0575 32.7436 24.5765 30.5503V33.6807C24.5774 34.3788 24.8551 35.048 25.3487 35.5417C25.8423 36.0353 26.5116 36.313 27.2097 36.3138H32.2608C32.5131 36.8955 32.9181 37.398 33.4328 37.7682C33.9476 38.1385 34.5528 38.3625 35.1845 38.4168C35.8163 38.471 36.4509 38.3534 37.0212 38.0763C37.5915 37.7992 38.0762 37.373 38.424 36.8429C38.7718 36.3128 38.9697 35.6985 38.9968 35.065C39.0239 34.4316 38.8792 33.8026 38.5779 33.2447C38.2766 32.6868 37.8301 32.2208 37.2855 31.896C36.741 31.5713 36.1187 31.3999 35.4847 31.4L35.4845 31.4003ZM35.4845 36.2483C35.2209 36.2482 34.9632 36.17 34.7441 36.0235C34.525 35.877 34.3542 35.6688 34.2534 35.4253C34.1526 35.1817 34.1262 34.9138 34.1777 34.6552C34.2292 34.3967 34.3562 34.1593 34.5426 33.973C34.729 33.7866 34.9665 33.6597 35.2251 33.6084C35.4836 33.557 35.7516 33.5835 35.9951 33.6844C36.2386 33.7853 36.4467 33.9562 36.5931 34.1754C36.7395 34.3946 36.8176 34.6523 36.8175 34.9159C36.817 35.2692 36.6763 35.6079 36.4264 35.8576C36.1765 36.1074 35.8378 36.2479 35.4845 36.2483Z" fill="black"/>
<path d="M19.9846 16.7869H31.918C31.9999 16.787 32.0811 16.7709 32.1567 16.7395C32.2324 16.7082 32.3012 16.6623 32.3591 16.6044C32.417 16.5465 32.4629 16.4777 32.4943 16.402C32.5256 16.3263 32.5417 16.2452 32.5416 16.1633C32.5374 15.1624 32.4194 14.1652 32.19 13.1909H33.9423C34.6404 13.1901 35.3097 12.9124 35.8033 12.4187C36.2969 11.9251 36.5746 11.2558 36.5755 10.5577V8.20934C37.3708 7.94965 38.0474 7.41483 38.4838 6.70101C38.9201 5.98718 39.0876 5.14114 38.9561 4.3149C38.8246 3.48867 38.4028 2.7364 37.7664 2.19329C37.1301 1.65017 36.3208 1.35181 35.4842 1.35181C34.6476 1.35181 33.8384 1.65017 33.202 2.19329C32.5656 2.7364 32.1438 3.48867 32.0123 4.3149C31.8808 5.14114 32.0483 5.98718 32.4847 6.70101C32.921 7.41483 33.5976 7.94965 34.3929 8.20934V10.5577C34.3928 10.6772 34.3453 10.7917 34.2608 10.8762C34.1763 10.9607 34.0617 11.0082 33.9423 11.0084H31.5387C31.5203 11.0084 31.503 11.0129 31.4848 11.0137C30.9042 9.63431 30.0934 8.3636 29.087 7.25588L29.0863 7.25463C27.856 5.91399 26.3631 4.84068 24.7005 4.10138C23.0378 3.36208 21.2409 2.97259 19.4213 2.95712H19.417C19.2517 2.95712 19.093 3.02282 18.9761 3.13976C18.8592 3.25671 18.7935 3.41532 18.7935 3.5807V15.5957C18.7937 15.9116 18.9193 16.2144 19.1426 16.4377C19.366 16.6611 19.6688 16.7867 19.9846 16.7869ZM35.4842 3.53687C35.7478 3.53693 36.0055 3.61515 36.2246 3.76164C36.4437 3.90814 36.6145 4.11632 36.7153 4.35987C36.8161 4.60342 36.8425 4.87139 36.791 5.12991C36.7395 5.38842 36.6125 5.62586 36.4261 5.8122C36.2396 5.99854 36.0021 6.12542 35.7436 6.17678C35.4851 6.22814 35.2171 6.20169 34.9736 6.10076C34.7301 5.99983 34.522 5.82896 34.3756 5.60976C34.2292 5.39056 34.1511 5.13287 34.1512 4.86929C34.1517 4.51596 34.2924 4.17728 34.5423 3.9275C34.7921 3.67773 35.1309 3.53725 35.4842 3.53687Z" fill="black"/>
<path d="M16.1757 6.61725C16.1758 6.53535 16.1597 6.45424 16.1284 6.37856C16.097 6.30288 16.0511 6.23412 15.9932 6.1762C15.9353 6.11829 15.8665 6.07236 15.7908 6.04103C15.7151 6.00971 15.634 5.99362 15.5521 5.99367H15.4663C12.7183 5.98965 10.0303 6.79685 7.73917 8.31409C5.44804 9.83133 3.65573 11.9911 2.5869 14.5227C1.51807 17.0543 1.22027 19.845 1.73084 22.5451C2.24141 25.2452 3.53762 27.7346 5.457 29.7011L16.1757 18.0258V6.61725Z" fill="black"/>
</svg>
