<svg width="40" height="40" viewBox="0 0 40 40" fill="none" xmlns="http://www.w3.org/2000/svg">
<g clip-path="url(#clip0_223_1609)">
<path fill-rule="evenodd" clip-rule="evenodd" d="M29.7157 3.33333C29.0293 1.39135 27.1772 0 25.0002 0H15.0002C12.8231 0 10.9711 1.39135 10.2847 3.33333H8.3335C5.57208 3.33333 3.3335 5.57192 3.3335 8.33333V35C3.3335 37.7615 5.57208 40 8.3335 40H31.6668C34.4283 40 36.6668 37.7615 36.6668 35V8.33333C36.6668 5.57192 34.4283 3.33333 31.6668 3.33333H29.7157ZM13.3335 5C13.3335 5.92047 14.0797 6.66667 15.0002 6.66667H25.0002C25.9207 6.66667 26.6668 5.92047 26.6668 5C26.6668 4.07953 25.9207 3.33333 25.0002 3.33333H15.0002C14.0797 3.33333 13.3335 4.07953 13.3335 5ZM11.6668 15C10.7464 15 10.0002 15.7462 10.0002 16.6667C10.0002 17.5872 10.7464 18.3333 11.6668 18.3333H28.3335C29.254 18.3333 30.0002 17.5872 30.0002 16.6667C30.0002 15.7462 29.254 15 28.3335 15H11.6668ZM10.0002 23.3333C10.0002 22.4128 10.7464 21.6667 11.6668 21.6667H28.3335C29.254 21.6667 30.0002 22.4128 30.0002 23.3333C30.0002 24.2538 29.254 25 28.3335 25H11.6668C10.7464 25 10.0002 24.2538 10.0002 23.3333ZM11.6668 28.3333C10.7464 28.3333 10.0002 29.0795 10.0002 30C10.0002 30.9205 10.7464 31.6667 11.6668 31.6667H28.3335C29.254 31.6667 30.0002 30.9205 30.0002 30C30.0002 29.0795 29.254 28.3333 28.3335 28.3333H11.6668Z" fill="black"/>
</g>
<defs>
<clipPath id="clip0_223_1609">
<rect width="40" height="40" fill="white"/>
</clipPath>
</defs>
</svg>
