<svg width="40" height="40" viewBox="0 0 40 40" fill="none" xmlns="http://www.w3.org/2000/svg">
<path fill-rule="evenodd" clip-rule="evenodd" d="M20 1.25C17.9289 1.25 16.25 2.92893 16.25 5H7.8125C6.25919 5 5 6.25919 5 7.8125V35.9375C5 37.4907 6.25919 38.75 7.8125 38.75H32.1875C33.7407 38.75 35 37.4907 35 35.9375V7.8125C35 6.25919 33.7407 5 32.1875 5H23.75C23.75 2.92893 22.0711 1.25 20 1.25ZM12.5 12.5V11.5625C12.5 10.0092 13.7592 8.75 15.3125 8.75H24.6875C26.2407 8.75 27.5 10.0092 27.5 11.5625V12.5H12.5ZM26.9508 18.6742C27.683 19.4064 27.683 20.5936 26.9508 21.3258L19.4508 28.8258C18.7186 29.558 17.5314 29.558 16.7992 28.8258L13.0492 25.0758C12.3169 24.3436 12.3169 23.1564 13.0492 22.4242C13.7814 21.692 14.9686 21.692 15.7008 22.4242L18.125 24.8484L24.2992 18.6742C25.0314 17.9419 26.2186 17.9419 26.9508 18.6742Z" fill="black"/>
</svg>
