<svg width="40" height="40" viewBox="0 0 40 40" fill="none" xmlns="http://www.w3.org/2000/svg">
<path d="M34.2401 33.9201V8.80011C34.2401 5.76011 31.8401 3.36011 28.8001 3.36011H28.4801C28.4801 6.72011 25.7601 9.28011 22.5601 9.28011H17.2801C13.9201 9.28011 11.3601 6.56011 11.3601 3.36011H11.0401C8.0001 3.36011 5.6001 5.76011 5.6001 8.80011V34.0801C5.6001 37.1201 8.0001 39.5201 11.0401 39.5201H28.9601C31.8401 39.3601 34.2401 36.9601 34.2401 33.9201ZM19.6801 33.6001C14.5601 33.6001 10.5601 29.4401 10.5601 24.4801C10.5601 19.3601 14.7201 15.3601 19.6801 15.3601C24.8001 15.3601 28.8001 19.5201 28.8001 24.4801C28.8001 29.6001 24.6401 33.6001 19.6801 33.6001Z" fill="black"/>
<path d="M22.7202 6.24005C24.3202 6.24005 25.4402 4.96005 25.4402 3.52005C25.4402 2.08005 24.1602 0.800049 22.7202 0.800049H17.4402C15.8402 0.800049 14.7202 2.08005 14.7202 3.52005C14.7202 4.96005 16.0002 6.24005 17.4402 6.24005H22.7202Z" fill="black"/>
<path d="M23.0402 21.6001L18.0802 24.6401L16.9602 22.8801C16.4802 22.0801 15.5202 21.9201 14.7202 22.4001C13.9202 22.8801 13.7602 23.8401 14.2402 24.6401L15.8402 27.2001C16.4802 28.1601 17.9202 28.6401 18.8802 27.8401L24.4802 24.3201C25.2802 23.8401 25.4402 22.8801 24.9602 22.0801C24.8002 21.2801 23.8402 21.1201 23.0402 21.6001Z" fill="black"/>
</svg>
