<svg width="40" height="40" viewBox="0 0 40 40" fill="none" xmlns="http://www.w3.org/2000/svg">
<g clip-path="url(#clip0_223_1659)">
<path d="M31.1711 21.8616C31.2755 21.2392 31.3283 20.6152 31.3283 20C31.3283 19.3848 31.2755 18.7608 31.1711 18.1383L32.723 16.1661C33.0193 15.7895 33.0566 15.2705 32.8169 14.8555L30.8638 11.4725C30.6243 11.0575 30.1562 10.8302 29.6818 10.8985L27.1877 11.2579C26.2139 10.4531 25.136 9.8275 23.9719 9.39125L23.0413 7.06461C22.8634 6.61984 22.4325 6.32812 21.9533 6.32812H18.0471C17.5678 6.32812 17.137 6.61984 16.959 7.06477L16.0284 9.39141C14.8644 9.82758 13.7865 10.4532 12.8127 11.258L10.3185 10.8986C9.84417 10.8302 9.37613 11.0576 9.13652 11.4726L7.18339 14.8555C6.94378 15.2705 6.98097 15.7896 7.2773 16.1662L8.82917 18.1384C8.72488 18.7609 8.67206 19.3848 8.67206 20C8.67206 20.6152 8.72488 21.2391 8.82925 21.8616L7.27738 23.8338C6.98105 24.2104 6.94378 24.7295 7.18347 25.1445L9.1366 28.5274C9.37613 28.9424 9.8441 29.1699 10.3185 29.1014L12.8127 28.742C13.7865 29.5468 14.8643 30.1724 16.0285 30.6087L16.9591 32.9353C17.137 33.3802 17.5678 33.6719 18.0471 33.6719H21.9533C22.4325 33.6719 22.8634 33.3802 23.0414 32.9352L23.972 30.6086C25.1361 30.1724 26.2139 29.5467 27.1878 28.742L29.6819 29.1013C30.156 29.1697 30.6243 28.9423 30.8639 28.5273L32.817 25.1444C33.0566 24.7294 33.0194 24.2103 32.7231 23.8337L31.1711 21.8616ZM20.0002 25.4688C16.9847 25.4688 14.5314 23.0155 14.5314 20C14.5314 16.9845 16.9847 14.5312 20.0002 14.5312C23.0157 14.5312 25.4689 16.9845 25.4689 20C25.4689 23.0155 23.0157 25.4688 20.0002 25.4688Z" fill="black"/>
<path d="M37.2407 30.1385C39.046 27.0777 40.0002 23.572 40.0002 20C40.0002 14.6578 37.9198 9.63539 34.1424 5.85781C30.3648 2.08039 25.3424 0 20.0002 0C18.4755 0 16.94 0.178047 15.4364 0.529297C14.8061 0.676484 14.4145 1.30672 14.5618 1.93703C14.7089 2.56719 15.3388 2.95898 15.9695 2.81164C17.2986 2.50117 18.6547 2.34375 20.0002 2.34375C29.7359 2.34375 37.6564 10.2643 37.6564 20C37.6564 25.372 35.1793 30.4357 31.0531 33.7602L31.2399 32.7009C31.3523 32.0636 30.9267 31.4558 30.2893 31.3434C29.652 31.2309 29.0442 31.6566 28.9318 32.2939L28.2602 36.1022C28.1478 36.7395 28.5734 37.3473 29.2107 37.4598L33.019 38.1312C33.6564 38.2437 34.2642 37.818 34.3766 37.1807C34.489 36.5434 34.0634 35.9355 33.4261 35.8231L32.4421 35.6496C34.3587 34.125 35.9915 32.2563 37.2407 30.1385Z" fill="black"/>
<path d="M24.0308 37.1884C22.7016 37.4989 21.3455 37.6563 20 37.6563C10.2643 37.6563 2.34375 29.7358 2.34375 20.0001C2.34375 14.6287 4.82141 9.56702 8.94664 6.24249L8.76031 7.29913C8.64789 7.93647 9.07352 8.54428 9.71086 8.65671C10.3482 8.76913 10.956 8.3435 11.0684 7.70616L11.74 3.89788C11.8524 3.26053 11.4268 2.65272 10.7895 2.5403L6.98117 1.86882C6.34375 1.75647 5.73594 2.1821 5.62352 2.81944C5.51117 3.45678 5.93672 4.0646 6.57406 4.17694L7.56016 4.35085C5.64305 5.87561 4.00875 7.74335 2.75945 9.86155C0.954219 12.9223 0 16.4282 0 20.0001C0 25.3423 2.08039 30.3647 5.85781 34.1422C9.63539 37.9198 14.6578 40.0001 20 40.0001C21.5247 40.0001 23.0602 39.822 24.5638 39.4708C25.1941 39.3236 25.5857 38.6933 25.4384 38.063C25.2913 37.4329 24.6613 37.0412 24.0308 37.1884Z" fill="black"/>
</g>
<defs>
<clipPath id="clip0_223_1659">
<rect width="40" height="40" fill="white"/>
</clipPath>
</defs>
</svg>
