<svg width="40" height="40" viewBox="0 0 40 40" fill="none" xmlns="http://www.w3.org/2000/svg">
<g clip-path="url(#clip0_223_1110)">
<path d="M19.4411 23.6559C19.1456 23.2234 19.0104 22.7012 19.0589 22.1795C19.1074 21.6579 19.3365 21.1695 19.7068 20.7989L20.8871 19.6188C21.2576 19.2484 21.746 19.0191 22.2677 18.9706C22.7894 18.9222 23.3117 19.0576 23.7441 19.3534L24.9535 20.1807C24.9672 20.1194 24.9862 20.0594 25.0103 20.0014C25.1714 19.6639 25.931 17.9711 26.0638 17.7545C26.2641 17.4273 26.545 17.157 26.8796 16.9693C27.2142 16.7817 27.5914 16.683 27.9751 16.6828H29.6438C29.7643 16.6837 29.8845 16.6944 30.0032 16.7147C30.0187 16.6362 30.0268 16.5564 30.0271 16.4764V14.1632C30.027 13.8692 29.9242 13.5845 29.7364 13.3583C29.5486 13.132 29.2877 12.9785 28.9987 12.9242L26.318 12.4213C26.1209 12.3861 25.9365 12.2998 25.7832 12.171C25.6299 12.0423 25.513 11.8756 25.4443 11.6876C25.3177 11.3306 25.1728 10.9804 25.0103 10.6383C24.9267 10.4566 24.892 10.2562 24.9096 10.057C24.9273 9.85779 24.9967 9.66664 25.111 9.5025L26.6497 7.2525C26.8154 7.0097 26.8912 6.71669 26.864 6.42398C26.8368 6.13128 26.7084 5.85724 26.5008 5.64912L24.865 4.01369C24.657 3.80588 24.383 3.67724 24.0902 3.64999C23.7975 3.62274 23.5044 3.69859 23.2616 3.86444L21.0116 5.40375C20.8475 5.51815 20.6563 5.58757 20.457 5.60512C20.2577 5.62266 20.0573 5.58771 19.8758 5.50375C19.5335 5.34115 19.183 5.1965 18.8258 5.07037C18.6378 5.00123 18.4713 4.88409 18.3426 4.73062C18.214 4.57715 18.1278 4.39268 18.0926 4.19556L17.5896 1.5155C17.5357 1.2265 17.3823 0.96548 17.1562 0.777653C16.93 0.589826 16.6452 0.487026 16.3513 0.487061H14.038C13.744 0.487196 13.4593 0.590013 13.2331 0.777746C13.0069 0.96548 12.8533 1.22634 12.799 1.51525L12.2961 4.19556C12.2608 4.39268 12.1745 4.57713 12.0458 4.73057C11.9171 4.88401 11.7505 5.00109 11.5626 5.07019C11.2055 5.19615 10.8553 5.34081 10.5134 5.50356C10.3317 5.58738 10.1312 5.62224 9.93186 5.6047C9.73252 5.58716 9.54123 5.51782 9.37694 5.40356L7.12694 3.86425C6.8841 3.69855 6.59105 3.62279 6.29834 3.65003C6.00562 3.67728 5.73159 3.80583 5.5235 4.0135L3.88844 5.64912C3.68075 5.85717 3.55216 6.13118 3.52487 6.42388C3.49758 6.71659 3.57329 7.00964 3.73894 7.2525L5.27825 9.5025C5.39256 9.6667 5.46193 9.85795 5.47947 10.0573C5.49702 10.2566 5.46212 10.457 5.37825 10.6386C5.2154 10.9806 5.07056 11.331 4.94432 11.6881C4.8754 11.876 4.75843 12.0426 4.60509 12.1713C4.45174 12.2999 4.26736 12.3861 4.07032 12.4213L1.39032 12.9242C1.10132 12.9785 0.840357 13.132 0.652551 13.3582C0.464744 13.5845 0.361905 13.8692 0.361816 14.1632V16.4764C0.361903 16.7705 0.46474 17.0553 0.652545 17.2815C0.84035 17.5078 1.10132 17.6613 1.39032 17.7155L4.06975 18.2181C4.26702 18.2533 4.45159 18.3397 4.60506 18.4685C4.75853 18.5974 4.87553 18.7642 4.94438 18.9524C5.07072 19.3093 5.21556 19.6594 5.37832 20.0012C5.46218 20.1829 5.49707 20.3833 5.47953 20.5827C5.46198 20.782 5.39262 20.9732 5.27832 21.1374L3.739 23.3874C3.57319 23.6302 3.49738 23.9232 3.52467 24.2159C3.55197 24.5086 3.68066 24.7826 3.8885 24.9905L5.52363 26.6262C5.73164 26.8341 6.00571 26.9627 6.29849 26.9899C6.59126 27.0171 6.88434 26.9411 7.12707 26.7752L9.37707 25.2362C9.54145 25.1221 9.73272 25.0529 9.93202 25.0354C10.1313 25.0179 10.3317 25.0526 10.5135 25.1362C10.8553 25.2992 11.2056 25.4439 11.5627 25.5699C11.7507 25.6389 11.9173 25.756 12.046 25.9095C12.1748 26.0629 12.2611 26.2474 12.2964 26.4445L12.7993 29.1249C12.8537 29.4138 13.0072 29.6746 13.2334 29.8623C13.4597 30.0501 13.7444 30.1529 14.0383 30.153H16.3516C16.5172 30.1521 16.6811 30.1183 16.8336 30.0536C16.7941 29.8908 16.7731 29.7239 16.7711 29.5564V27.8876C16.7712 27.5117 16.8656 27.1417 17.0457 26.8117C17.2258 26.4816 17.4857 26.202 17.8018 25.9984C18.6401 25.619 19.5036 25.298 20.3861 25.0376L19.4411 23.6559ZM15.1944 20.0747C14.254 20.0747 13.3347 19.7958 12.5527 19.2734C11.7708 18.7509 11.1613 18.0083 10.8015 17.1394C10.4416 16.2706 10.3474 15.3145 10.5309 14.3922C10.7143 13.4698 11.1672 12.6226 11.8322 11.9576C12.4972 11.2926 13.3444 10.8397 14.2668 10.6563C15.1892 10.4728 16.1452 10.567 17.0141 10.9269C17.8829 11.2868 18.6255 11.8963 19.148 12.6782C19.6704 13.4602 19.9493 14.3795 19.9493 15.3199C19.9492 16.581 19.4482 17.7903 18.5565 18.682C17.6648 19.5737 16.4555 20.0746 15.1944 20.0746V20.0747Z" fill="#282828"/>
<path d="M38.7276 27.2146L36.7938 26.8521C36.6126 26.8195 36.4432 26.7399 36.3025 26.6213C36.1617 26.5027 36.0546 26.3492 35.9918 26.1762C35.9036 25.9259 35.8022 25.6805 35.6881 25.4409C35.6105 25.2743 35.578 25.0902 35.5937 24.9071C35.6094 24.724 35.6729 24.5481 35.7777 24.3972L36.8882 22.7739C36.9783 22.6422 37.0195 22.4832 37.0047 22.3243C36.9899 22.1654 36.9201 22.0167 36.8073 21.9039L35.6272 20.7239C35.5144 20.611 35.3657 20.5412 35.2069 20.5264C35.048 20.5117 34.889 20.5529 34.7573 20.643L33.1339 21.7534C32.983 21.8582 32.8072 21.9217 32.624 21.9374C32.4409 21.9531 32.2568 21.9206 32.0902 21.8429C31.8506 21.729 31.6052 21.6276 31.355 21.5394C31.182 21.4765 31.0285 21.3694 30.9099 21.2286C30.7912 21.0879 30.7117 20.9185 30.6791 20.7373L30.3162 18.8034C30.2868 18.6466 30.2035 18.505 30.0807 18.4031C29.9579 18.3012 29.8034 18.2454 29.6439 18.2454H27.9749C27.8154 18.2454 27.6609 18.3012 27.5381 18.4031C27.4154 18.505 27.3321 18.6466 27.3026 18.8034L26.9398 20.7373C26.9072 20.9184 26.8276 21.0879 26.709 21.2286C26.5904 21.3693 26.4369 21.4765 26.2639 21.5393C26.0137 21.6276 25.7683 21.729 25.5286 21.8429C25.362 21.9206 25.178 21.9531 24.9948 21.9374C24.8117 21.9217 24.6358 21.8582 24.4849 21.7534L22.8616 20.643C22.7299 20.5529 22.5709 20.5117 22.412 20.5264C22.2532 20.5412 22.1045 20.611 21.9916 20.7239L20.8116 21.9037C20.6988 22.0166 20.6289 22.1653 20.6142 22.3241C20.5994 22.483 20.6406 22.642 20.7307 22.7737L21.8412 24.3969C21.946 24.5479 22.0095 24.7237 22.0252 24.9069C22.0409 25.09 22.0084 25.274 21.9308 25.4407C21.8167 25.6802 21.7153 25.9257 21.6271 26.1759C21.5643 26.3489 21.4571 26.5024 21.3163 26.6211C21.1756 26.7397 21.0061 26.8193 20.8249 26.8519L18.8911 27.2144C18.7342 27.2438 18.5926 27.3271 18.4907 27.4499C18.3888 27.5727 18.333 27.7272 18.333 27.8868V29.5555C18.333 29.7151 18.3888 29.8697 18.4907 29.9924C18.5926 30.1152 18.7342 30.1985 18.8911 30.2279L20.8249 30.5904C21.0061 30.6231 21.1755 30.7027 21.3162 30.8213C21.457 30.9399 21.5641 31.0934 21.6269 31.2664C21.7151 31.5167 21.8165 31.7621 21.9306 32.0016C22.0082 32.1682 22.0408 32.3523 22.0251 32.5354C22.0093 32.7186 21.9459 32.8944 21.841 33.0454L20.7305 34.6687C20.6404 34.8004 20.5992 34.9594 20.614 35.1182C20.6288 35.2771 20.6986 35.4258 20.8114 35.5386L21.9915 36.7187C22.1043 36.8316 22.253 36.9014 22.4119 36.9162C22.5708 36.9309 22.7298 36.8897 22.8615 36.7996L24.4848 35.6892C24.6357 35.5843 24.8115 35.5209 24.9947 35.5051C25.1778 35.4894 25.3619 35.522 25.5285 35.5996C25.7681 35.7136 26.0136 35.8149 26.2638 35.9032C26.4368 35.9661 26.5903 36.0732 26.7089 36.214C26.8275 36.3547 26.907 36.5242 26.9396 36.7053L27.3025 38.6392C27.3319 38.796 27.4152 38.9376 27.538 39.0395C27.6608 39.1413 27.8153 39.1971 27.9748 39.1971H29.6436C29.8031 39.1971 29.9576 39.1413 30.0804 39.0395C30.2032 38.9376 30.2865 38.796 30.3159 38.6392L30.6788 36.7052C30.7114 36.5241 30.7909 36.3547 30.9095 36.214C31.0281 36.0732 31.1816 35.9661 31.3546 35.9032C31.6048 35.815 31.8503 35.7136 32.0899 35.5996C32.2565 35.522 32.4406 35.4894 32.6237 35.5051C32.8069 35.5209 32.9827 35.5843 33.1336 35.6892L34.7572 36.8C34.8889 36.8901 35.0479 36.9313 35.2068 36.9165C35.3657 36.9017 35.5144 36.8319 35.6272 36.7191L36.8073 35.539C36.9201 35.4262 36.99 35.2775 37.0047 35.1186C37.0195 34.9598 36.9783 34.8008 36.8882 34.6691L35.7777 33.0457C35.6728 32.8948 35.6094 32.7189 35.5937 32.5358C35.578 32.3527 35.6106 32.1686 35.6883 32.002C35.8023 31.7624 35.9036 31.517 35.9918 31.2668C36.0546 31.0938 36.1618 30.9404 36.3025 30.8218C36.4432 30.7032 36.6126 30.6237 36.7937 30.591L38.7276 30.2285C38.8844 30.1992 39.0261 30.1159 39.128 29.9931C39.2299 29.8703 39.2856 29.7157 39.2856 29.5562V27.8874C39.2857 27.7278 39.23 27.5732 39.1281 27.4503C39.0262 27.3274 38.8845 27.244 38.7276 27.2146ZM28.8094 32.6043C28.0415 32.6043 27.2908 32.3766 26.6523 31.9499C26.0138 31.5232 25.5161 30.9168 25.2222 30.2073C24.9284 29.4979 24.8515 28.7172 25.0013 27.964C25.1511 27.2108 25.5209 26.5189 26.0639 25.9759C26.607 25.4329 27.2988 25.0631 28.052 24.9133C28.8052 24.7635 29.5859 24.8403 30.2954 25.1342C31.0049 25.4281 31.6113 25.9258 32.0379 26.5643C32.4646 27.2028 32.6923 27.9535 32.6923 28.7214C32.6923 29.7512 32.2832 30.7389 31.5551 31.467C30.8269 32.1952 29.8392 32.6043 28.8094 32.6043Z" fill="#282828"/>
</g>
<defs>
<clipPath id="clip0_223_1110">
<rect width="40" height="40" fill="white"/>
</clipPath>
</defs>
</svg>
