<svg width="40" height="40" viewBox="0 0 40 40" fill="none" xmlns="http://www.w3.org/2000/svg">
<g clip-path="url(#clip0_223_1663)">
<path d="M11.6216 22.8415C12.7457 22.8415 13.8322 22.7689 14.8604 22.6337V11.3639C13.8323 11.2289 12.7457 11.1562 11.6216 11.1562C5.20317 11.1562 0 13.5161 0 16.4273V17.5704C0 20.4814 5.20317 22.8415 11.6216 22.8415Z" fill="black"/>
<path d="M11.6216 28.7261C12.7457 28.7261 13.8322 28.6535 14.8604 28.5186V25.2152C13.832 25.3502 12.746 25.4238 11.6216 25.4238C6.01901 25.4238 1.34283 23.6256 0.244422 21.2324C0.0844619 21.581 0 21.942 0 22.312V23.4551C0 26.3663 5.20317 28.7261 11.6216 28.7261Z" fill="black"/>
<path d="M14.8604 31.3567V31.0999C13.832 31.235 12.746 31.3086 11.6216 31.3086C6.01901 31.3086 1.34283 29.5104 0.244422 27.1172C0.0844619 27.4657 0 27.8266 0 28.1967V29.3398C0 32.251 5.20317 34.6109 11.6216 34.6109C12.9051 34.6109 14.1397 34.5163 15.2942 34.342C15.008 33.7566 14.8604 33.1393 14.8604 32.4997V31.3567Z" fill="black"/>
<path d="M28.3784 2.229C21.96 2.229 16.7568 4.58886 16.7568 7.50001V8.64313C16.7568 11.5543 21.96 13.9141 28.3784 13.9141C34.7967 13.9141 40 11.5543 40 8.64313V7.50001C40 4.58886 34.7967 2.229 28.3784 2.229Z" fill="black"/>
<path d="M28.3784 16.4966C22.7758 16.4966 18.0997 14.6985 17.0013 12.3052C16.8413 12.6537 16.7568 13.0146 16.7568 13.3848V14.5279C16.7568 17.439 21.96 19.7989 28.3784 19.7989C34.7967 19.7989 40 17.439 40 14.5279V13.3848C40 13.0146 39.9155 12.6537 39.7556 12.3052C38.6572 14.6985 33.981 16.4966 28.3784 16.4966Z" fill="black"/>
<path d="M28.3784 22.3814C22.7758 22.3814 18.0997 20.5832 17.0013 18.1899C16.8413 18.5384 16.7568 18.8994 16.7568 19.2695V20.4126C16.7568 23.3239 21.96 25.6837 28.3784 25.6837C34.7967 25.6837 40 23.3239 40 20.4126V19.2695C40 18.8994 39.9155 18.5384 39.7556 18.1899C38.6572 20.5833 33.981 22.3814 28.3784 22.3814Z" fill="black"/>
<path d="M28.3784 28.584C22.7758 28.584 18.0997 26.7858 17.0013 24.3926C16.8413 24.7412 16.7568 25.102 16.7568 25.4721V26.6153C16.7568 29.5264 21.96 31.8863 28.3784 31.8863C34.7967 31.8863 40 29.5264 40 26.6153V25.4721C40 25.102 39.9155 24.741 39.7556 24.3926C38.6572 26.7857 33.981 28.584 28.3784 28.584Z" fill="black"/>
<path d="M28.3784 34.4688C22.7758 34.4688 18.0997 32.6707 17.0013 30.2774C16.8413 30.626 16.7568 30.9871 16.7568 31.3569V32.5C16.7568 35.4112 21.96 37.771 28.3784 37.771C34.7967 37.771 40 35.4112 40 32.5V31.3568C40 30.9868 39.9155 30.6257 39.7556 30.2773C38.6572 32.6706 33.981 34.4688 28.3784 34.4688Z" fill="black"/>
</g>
<defs>
<clipPath id="clip0_223_1663">
<rect width="40" height="40" fill="white"/>
</clipPath>
</defs>
</svg>
