<svg width="40" height="40" viewBox="0 0 40 40" fill="none" xmlns="http://www.w3.org/2000/svg">
<g clip-path="url(#clip0_223_1616)">
<path d="M19.9912 0C19.3435 0 18.8193 0.524141 18.8193 1.17188V4.88422C16.1475 5.42867 14.1318 7.79563 14.1318 10.625C14.1318 13.8557 16.7594 16.4844 19.9912 16.4844C23.223 16.4844 25.8506 13.8557 25.8506 10.625C25.8506 7.79563 23.8349 5.42867 21.1631 4.88422V1.17188C21.1631 0.524141 20.6389 0 19.9912 0ZM19.9912 11.7969C19.344 11.7969 18.8193 11.2722 18.8193 10.625C18.8193 9.97766 19.344 9.45312 19.9912 9.45312C20.6384 9.45312 21.1631 9.97766 21.1631 10.625C21.1631 11.2722 20.6384 11.7969 19.9912 11.7969Z" fill="black"/>
<path d="M5.6007 29.7031C4.26476 32.2108 4.94453 35.408 7.03039 37.1189L6.42117 38.2673C6.11648 38.8298 6.32734 39.5564 6.88984 39.8611C7.4525 40.1658 8.17898 39.9549 8.48375 39.369L13.6866 29.5156C10.921 28.625 8.81156 27.2891 7.45234 26.2578L5.6007 29.7031Z" fill="black"/>
<path d="M32.5536 23.1639C32.9989 22.6952 32.9989 21.9686 32.5302 21.4999C32.0615 21.0546 31.335 21.0779 30.8662 21.5232C30.8662 21.5232 30.6552 21.7342 30.2803 22.0623C30.1537 21.8273 26.4924 15.0278 26.6708 15.3591C25.2881 17.3045 23.0615 18.6169 20.5302 18.7811C20.6598 19.0228 24.2422 25.707 24.0224 25.2968C23.1417 25.5507 22.175 25.6956 21.1631 25.7763V24.6874C21.1631 24.0397 20.6389 23.5155 19.9912 23.5155C19.3435 23.5155 18.8193 24.0397 18.8193 24.6874V25.7763C17.8074 25.6956 16.8406 25.5507 15.96 25.2968C16.0896 25.0549 19.672 18.3709 19.4522 18.7811C16.9209 18.617 14.7178 17.3045 13.3116 15.3591C13.1817 15.6003 9.50228 22.4334 9.70213 22.0623C9.3272 21.7342 9.11619 21.5232 9.11619 21.5232C8.64744 21.0779 7.92088 21.0545 7.4522 21.4999C6.98345 21.9686 6.98345 22.6951 7.42877 23.1639C8.28861 24.4575 13.1312 27.7297 18.8194 28.1127V29.3749C18.8194 30.0227 19.3435 30.5468 19.9913 30.5468C20.639 30.5468 21.1631 30.0227 21.1631 29.3749V28.1128C27.122 27.7115 31.9023 24.1438 32.5536 23.1639Z" fill="black"/>
<path d="M34.3818 29.7032L32.5302 26.2578C31.1709 27.2891 29.0615 28.625 26.2959 29.5156L31.5224 39.369C31.8271 39.9549 32.5302 40.1658 33.0928 39.8611C33.6787 39.5564 33.8896 38.8298 33.5849 38.2673L32.9755 37.1189C35.0614 35.4081 35.7411 32.2344 34.3818 29.7032Z" fill="black"/>
</g>
<defs>
<clipPath id="clip0_223_1616">
<rect width="40" height="40" fill="white"/>
</clipPath>
</defs>
</svg>
