<svg width="40" height="40" viewBox="0 0 40 40" fill="none" xmlns="http://www.w3.org/2000/svg">
<path d="M12.4062 30.2346C12.2036 29.999 12.0071 29.7563 11.8187 29.5092C11.6818 29.5626 11.5369 29.591 11.3885 29.591C10.7405 29.591 10.2125 29.063 10.2125 28.415C10.2125 28.095 10.3405 27.7972 10.56 27.5812C10.4089 27.3092 10.2658 27.0319 10.1316 26.7492C9.64536 25.7341 9.26669 24.6585 9.00803 23.5385C8.93958 23.2434 8.88003 22.9457 8.82847 22.6452C8.77247 22.6514 8.71469 22.6541 8.65781 22.6541C7.82136 22.6541 7.14047 21.9732 7.14047 21.1368C7.14047 20.3163 7.79558 19.6452 8.60981 19.6203C8.61692 19.3145 8.63381 19.0105 8.65781 18.7092C9.11203 13.1439 12.4791 8.39099 17.2285 5.9821C16.7618 5.79633 16.3263 5.5341 15.9449 5.20433C15.8542 5.20255 15.768 5.20166 15.6854 5.20166C7.52714 5.20255 0.888916 11.8408 0.888916 19.9999C0.888916 28.159 7.52714 34.7972 15.6862 34.7972C16.5991 34.7972 17.5049 34.7146 18.3938 34.5492C16.0685 33.6008 14.0214 32.1092 12.4062 30.2346ZM6.43114 14.0043C6.83825 14.0043 7.16892 14.335 7.16892 14.7412C7.16892 15.1483 6.83736 15.479 6.43114 15.479C6.02492 15.479 5.69425 15.1474 5.69425 14.7412C5.69425 14.335 6.02403 14.0043 6.43114 14.0043Z" fill="black"/>
<path d="M38.2143 14.9137C37.2561 15.0399 36.2659 14.8523 35.4179 14.3803C33.3192 15.3297 30.8347 14.5457 29.6685 12.5243C29.0525 11.4585 28.9023 10.2043 29.2383 9.03277C28.6978 8.65677 28.2436 8.16255 27.9112 7.58744C27.6774 7.1821 27.5094 6.75188 27.4116 6.3021C26.3707 6.27455 25.3618 5.8861 24.5734 5.20433C24.4836 5.20255 24.3974 5.20166 24.3147 5.20166C22.369 5.20166 20.5094 5.57944 18.8072 6.26566C13.5912 8.36344 9.83562 13.351 9.53518 19.2363C9.52274 19.4888 9.51562 19.743 9.51562 19.999C9.51562 20.9883 9.6134 21.9545 9.79918 22.8897C10.0685 24.2452 10.5236 25.5341 11.137 26.7297C11.6125 27.6577 12.1832 28.5288 12.8374 29.3306C14.6961 31.6123 17.2196 33.3314 20.1094 34.1883C21.4427 34.5839 22.8534 34.7963 24.313 34.7963C32.473 34.7972 39.1112 28.159 39.1112 19.9999C39.1112 18.2488 38.809 16.5394 38.2143 14.9137ZM13.8658 14.7412C13.8658 14.0843 14.4018 13.5492 15.0578 13.5492C15.7147 13.5492 16.2507 14.0843 16.2507 14.7412C16.2507 15.3981 15.7147 15.9341 15.0578 15.9341C14.4018 15.935 13.8658 15.399 13.8658 14.7412ZM15.4027 21.1377C15.4027 20.0514 16.289 19.1652 17.3752 19.1652C18.4614 19.1652 19.3476 20.0505 19.3476 21.1377C19.3476 22.223 18.4623 23.1101 17.3752 23.1101C16.289 23.1092 15.4027 22.223 15.4027 21.1377ZM20.1058 30.0461C19.209 30.0461 18.4756 29.3137 18.4756 28.415C18.4756 27.5163 19.2081 26.7848 20.1058 26.7848C21.0045 26.7848 21.737 27.5163 21.737 28.415C21.737 29.3137 21.0036 30.0461 20.1058 30.0461ZM21.6836 17.2648C20.785 17.2648 20.0534 16.5323 20.0534 15.6337C20.0534 14.735 20.785 14.0034 21.6836 14.0034C22.5823 14.0034 23.3147 14.735 23.3147 15.6337C23.3147 16.5323 22.5823 17.2648 21.6836 17.2648ZM25.2427 26.1714C24.5867 26.1714 24.0507 25.6363 24.0507 24.9794C24.0507 24.3225 24.5867 23.7866 25.2427 23.7866C25.8996 23.7866 26.4356 24.3225 26.4356 24.9794C26.4356 25.6363 25.8996 26.1714 25.2427 26.1714ZM25.9627 19.1599C25.9627 18.503 26.4978 17.967 27.1547 17.967C27.8116 17.967 28.3476 18.503 28.3476 19.1599C28.3476 19.8168 27.8116 20.3519 27.1547 20.3519C26.4978 20.3519 25.9627 19.8168 25.9627 19.1599ZM28.9085 30.135C28.2525 30.135 27.7165 29.599 27.7165 28.943C27.7165 28.2861 28.2525 27.7501 28.9085 27.7501C29.5654 27.7501 30.1014 28.2861 30.1014 28.943C30.1014 29.599 29.5654 30.135 28.9085 30.135ZM33.5707 24.5759C32.6721 24.5759 31.9396 23.8434 31.9396 22.9457C31.9396 22.0479 32.6721 21.3145 33.5707 21.3145C34.4676 21.3145 35.201 22.047 35.201 22.9457C35.201 23.8434 34.4685 24.5759 33.5707 24.5759Z" fill="black"/>
</svg>
