<svg width="40" height="40" viewBox="0 0 40 40" fill="none" xmlns="http://www.w3.org/2000/svg">
<path d="M38.7269 20.8551C38.7139 21.1226 38.6147 21.3787 38.4442 21.5852C38.2736 21.7917 38.0408 21.9374 37.7806 22.0007L35.626 22.5397C35.4634 23.5925 35.1921 24.6257 34.8164 25.6225L36.4006 27.1594C36.5939 27.3469 36.722 27.5913 36.7661 27.857C36.8103 28.1226 36.7682 28.3953 36.6459 28.6353C36.3859 29.1357 36.1012 29.6283 35.7997 30.0995C35.6531 30.325 35.4381 30.4976 35.1862 30.592C34.9343 30.6863 34.6588 30.6975 34.4001 30.6238L32.2615 30.0128C31.5916 30.8379 30.8393 31.5926 30.0163 32.265L30.6236 34.4C30.697 34.6586 30.6858 34.9338 30.5917 35.1856C30.4976 35.4374 30.3255 35.6525 30.1005 35.7995C29.6269 36.1023 29.1343 36.3867 28.6351 36.6455C28.3954 36.7678 28.1228 36.8102 27.8573 36.7662C27.5918 36.7223 27.3473 36.5944 27.1598 36.4013L25.6218 34.8108C24.6264 35.1895 23.5945 35.4642 22.5425 35.6305L22.0008 37.7807C21.9355 38.0397 21.7892 38.271 21.5834 38.4412C21.3775 38.6113 21.1228 38.7113 20.8561 38.7268C20.2859 38.7573 19.7144 38.7573 19.1441 38.7268C18.8774 38.7113 18.6226 38.6111 18.4168 38.4408C18.2109 38.2706 18.0647 38.0392 17.9994 37.7801L17.4601 35.6263C16.4075 35.4629 15.3745 35.1915 14.3775 34.8163L12.841 36.4008C12.6534 36.5942 12.4087 36.7223 12.1428 36.7662C11.877 36.8102 11.6041 36.7677 11.3642 36.6449C10.8659 36.3867 10.3733 36.1023 9.90091 35.8002C9.67558 35.6533 9.50315 35.4381 9.40883 35.1862C9.3145 34.9343 9.30322 34.6588 9.37664 34.4L9.98789 32.2619C9.16272 31.592 8.40809 30.8397 7.73574 30.0165L5.60043 30.6238C5.34173 30.6972 5.06634 30.6859 4.81453 30.5915C4.56271 30.4972 4.34768 30.3248 4.20089 30.0995C3.89907 29.6283 3.61434 29.1357 3.35464 28.6353C3.23224 28.3954 3.19003 28.1226 3.23419 27.8569C3.27836 27.5913 3.40657 27.3468 3.6 27.1594L5.18905 25.6213C4.81003 24.6261 4.53543 23.5941 4.36968 22.5421L2.22002 22.0007C1.95972 21.9375 1.72687 21.7918 1.55624 21.5853C1.38562 21.3788 1.28638 21.1227 1.27336 20.8551C1.24238 20.6594 1.2564 20.4591 1.31436 20.2696C1.37231 20.0801 1.47268 19.9063 1.60784 19.7614C1.72526 19.6395 1.86597 19.5425 2.02162 19.4762C2.17726 19.4098 2.34466 19.3754 2.51386 19.375H8.76716C8.68221 20.9027 8.90975 22.4316 9.43587 23.8683C9.962 25.305 10.7757 26.6193 11.8271 27.7308C12.8785 28.8424 14.1456 29.7277 15.5509 30.3328C16.9562 30.9379 18.4701 31.25 20.0001 31.25C21.5301 31.25 23.0441 30.9379 24.4494 30.3328C25.8546 29.7277 27.1217 28.8424 28.1732 27.7308C29.2246 26.6193 30.0382 25.305 30.5644 23.8683C31.0905 22.4316 31.318 20.9027 31.2331 19.375H37.4864C37.6556 19.3754 37.823 19.4098 37.9786 19.4762C38.1343 19.5425 38.275 19.6395 38.3924 19.7614C38.5276 19.9063 38.6279 20.0801 38.6859 20.2696C38.7438 20.4591 38.7579 20.6594 38.7269 20.8551ZM25.0001 5H22.5001C22.0028 5 21.5259 5.19754 21.1743 5.54917C20.8227 5.90081 20.6251 6.37772 20.6251 6.875V18.125H26.8751V6.875C26.8751 6.37772 26.6776 5.90081 26.3259 5.54917C25.9743 5.19754 25.4974 5 25.0001 5ZM32.5001 13.125H30.0001C29.5028 13.125 29.0259 13.3225 28.6743 13.6742C28.3227 14.0258 28.1251 14.5027 28.1251 15V18.125H34.3751V15C34.3751 14.5027 34.1776 14.0258 33.8259 13.6742C33.4743 13.3225 32.9974 13.125 32.5001 13.125ZM17.5001 1.25H15.0001C14.5028 1.25 14.0259 1.44754 13.6743 1.79917C13.3227 2.15081 13.1251 2.62772 13.1251 3.125V18.125H19.3751V3.125C19.3751 2.62772 19.1776 2.15081 18.8259 1.79917C18.4743 1.44754 17.9974 1.25 17.5001 1.25ZM10.0001 8.75H7.50011C7.00283 8.75 6.52592 8.94754 6.17429 9.29917C5.82266 9.65081 5.62511 10.1277 5.62511 10.625V18.125H11.8751V10.625C11.8751 10.1277 11.6776 9.65081 11.3259 9.29917C10.9743 8.94754 10.4974 8.75 10.0001 8.75Z" fill="black"/>
</svg>
