<svg width="40" height="40" viewBox="0 0 40 40" fill="none" xmlns="http://www.w3.org/2000/svg">
<g clip-path="url(#clip0_223_1618)">
<path d="M22.7808 6.88776V2.19311L32.1701 11.5824H27.4754C24.1787 11.5824 22.7808 10.1844 22.7808 6.88776ZM33.5472 20.8882L21.0907 33.4282C20.5036 34.0145 20.1734 34.8101 20.1726 35.6399V37.5595C20.1726 37.6417 20.1565 37.723 20.125 37.799C20.0935 37.8749 20.0474 37.9439 19.9893 38.0021C19.9312 38.0602 19.8622 38.1063 19.7862 38.1378C19.7103 38.1692 19.6289 38.1854 19.5467 38.1854H8.69684C7.84658 38.3067 6.97975 38.2284 6.16498 37.9568C5.3502 37.6851 4.60985 37.2275 4.00254 36.6202C3.39522 36.0129 2.93762 35.2725 2.66595 34.4577C2.39428 33.643 2.316 32.7761 2.43731 31.9259V6.88776C2.316 6.0375 2.39428 5.17067 2.66595 4.35589C2.93762 3.54112 3.39522 2.80077 4.00254 2.19346C4.60985 1.58614 5.3502 1.12854 6.16498 0.856865C6.97975 0.585194 7.84658 0.506917 8.69684 0.628231H19.651V6.88776C19.5277 7.94508 19.6452 9.0166 19.9948 10.022C20.3444 11.0275 20.917 11.9408 21.6697 12.6935C22.4224 13.4462 23.3357 14.0188 24.3411 14.3684C25.3466 14.718 26.4181 14.8355 27.4754 14.7122H33.735V20.4501C33.7373 20.5324 33.7217 20.6142 33.6893 20.6898C33.6569 20.7655 33.6084 20.8332 33.5472 20.8882ZM20.6943 27.7529C20.6943 27.3378 20.5294 26.9398 20.2359 26.6463C19.9425 26.3528 19.5444 26.188 19.1294 26.188H10.7834C10.3683 26.188 9.97028 26.3528 9.67681 26.6463C9.38334 26.9398 9.21847 27.3378 9.21847 27.7529C9.21847 28.1679 9.38334 28.5659 9.67681 28.8594C9.97028 29.1529 10.3683 29.3177 10.7834 29.3177H19.1294C19.5444 29.3177 19.9425 29.1529 20.2359 28.8594C20.5294 28.5659 20.6943 28.1679 20.6943 27.7529ZM26.9538 19.4068C26.9538 18.9918 26.7889 18.5938 26.4955 18.3003C26.202 18.0068 25.8039 17.8419 25.3889 17.8419H10.7834C10.3683 17.8419 9.97028 18.0068 9.67681 18.3003C9.38334 18.5938 9.21847 18.9918 9.21847 19.4068C9.21847 19.8219 9.38334 20.2199 9.67681 20.5134C9.97028 20.8068 10.3683 20.9717 10.7834 20.9717H25.3889C25.8039 20.9717 26.202 20.8068 26.4955 20.5134C26.7889 20.2199 26.9538 19.8219 26.9538 19.4068ZM23.3024 35.6399V40.2719H27.9345L36.2805 31.9676L31.6067 27.2938L23.3024 35.6399ZM39.452 26.188L37.3863 24.1223C37.2143 23.9487 37.0095 23.8109 36.7839 23.7169C36.5583 23.6228 36.3163 23.5744 36.0718 23.5744C35.8274 23.5744 35.5854 23.6228 35.3598 23.7169C35.1342 23.8109 34.9294 23.9487 34.7573 24.1223L33.0673 25.8333L37.7411 30.507L39.452 28.817C39.6256 28.6449 39.7634 28.4402 39.8575 28.2145C39.9515 27.9889 39.9999 27.7469 39.9999 27.5025C39.9999 27.258 39.9515 27.016 39.8575 26.7904C39.7634 26.5648 39.6256 26.36 39.452 26.188Z" fill="black"/>
</g>
<defs>
<clipPath id="clip0_223_1618">
<rect width="40" height="40" fill="white"/>
</clipPath>
</defs>
</svg>
