<svg width="40" height="40" viewBox="0 0 40 40" fill="none" xmlns="http://www.w3.org/2000/svg">
<g clip-path="url(#clip0_223_1657)">
<path d="M32.0835 0H7.91683C5.3885 0 3.3335 2.055 3.3335 4.58333V35.4167C3.3335 37.945 5.3885 40 7.91683 40H32.0835C34.6118 40 36.6668 37.945 36.6668 35.4167V4.58333C36.6668 2.055 34.6118 0 32.0835 0ZM17.9168 21.6667V13.46C21.9168 14.0683 25.0002 17.5 25.0002 21.6667C25.0002 26.2617 21.2618 30 16.6668 30C14.8202 30 13.1285 29.3767 11.7452 28.355L17.5502 22.55C17.7852 22.3167 17.9168 21.9983 17.9168 21.6667ZM15.4168 13.46V21.15L9.9785 26.5883C8.95683 25.205 8.3335 23.5133 8.3335 21.6667C8.3335 17.5 11.4168 14.0683 15.4168 13.46ZM30.4168 35.4167H9.5835C8.8935 35.4167 8.3335 34.8567 8.3335 34.1667C8.3335 33.4767 8.8935 32.9167 9.5835 32.9167H30.4168C31.1068 32.9167 31.6668 33.4767 31.6668 34.1667C31.6668 34.8567 31.1068 35.4167 30.4168 35.4167ZM30.4168 30H27.9168C27.2268 30 26.6668 29.44 26.6668 28.75C26.6668 28.06 27.2268 27.5 27.9168 27.5H30.4168C31.1068 27.5 31.6668 28.06 31.6668 28.75C31.6668 29.44 31.1068 30 30.4168 30ZM30.4168 25.4167H27.9168C27.2268 25.4167 26.6668 24.8567 26.6668 24.1667C26.6668 23.4767 27.2268 22.9167 27.9168 22.9167H30.4168C31.1068 22.9167 31.6668 23.4767 31.6668 24.1667C31.6668 24.8567 31.1068 25.4167 30.4168 25.4167ZM30.4168 20.4167H27.9168C27.2268 20.4167 26.6668 19.8567 26.6668 19.1667C26.6668 18.4767 27.2268 17.9167 27.9168 17.9167H30.4168C31.1068 17.9167 31.6668 18.4767 31.6668 19.1667C31.6668 19.8567 31.1068 20.4167 30.4168 20.4167ZM30.4168 15.8333H27.9168C27.2268 15.8333 26.6668 15.2733 26.6668 14.5833C26.6668 13.8933 27.2268 13.3333 27.9168 13.3333H30.4168C31.1068 13.3333 31.6668 13.8933 31.6668 14.5833C31.6668 15.2733 31.1068 15.8333 30.4168 15.8333Z" fill="black"/>
</g>
<defs>
<clipPath id="clip0_223_1657">
<rect width="40" height="40" fill="white"/>
</clipPath>
</defs>
</svg>
