<svg width="40" height="40" viewBox="0 0 40 40" fill="none" xmlns="http://www.w3.org/2000/svg">
<g clip-path="url(#clip0_223_1665)">
<path d="M39 24H36V19.9999C36 19.7347 35.8949 19.4802 35.7074 19.2927C35.5195 19.1052 35.2654 18.9998 34.9999 19.0001H25.9999V16.9999C26.0002 16.7347 25.8948 16.4802 25.7073 16.2927C25.5198 16.1052 25.2653 15.9998 25.0001 16.0001H21V10.0001H27C27.2651 10.0001 27.5197 9.89502 27.7072 9.70715C27.895 9.51965 28.0001 9.26514 28.0001 9V1.00012C28.0001 0.734619 27.895 0.480469 27.7072 0.292603C27.5197 0.105103 27.2651 0 27 0H13.0001C12.7346 0 12.4805 0.105103 12.2926 0.292603C12.1051 0.480469 12 0.734619 12 1.00012V9C12 9.26514 12.1051 9.51965 12.2926 9.70715C12.4805 9.89502 12.7346 10.0001 13.0001 10.0001H19.0001V16.0001H15C14.7349 15.9998 14.4803 16.1052 14.2928 16.2927C14.105 16.4802 13.9999 16.7347 13.9999 16.9999V19.0001H4.99988C4.73474 18.9998 4.48022 19.1052 4.29272 19.2927C4.10522 19.4802 3.99976 19.7347 4.00012 19.9999V24H1.00012C0.734619 24 0.480469 24.1051 0.292603 24.2926C0.105103 24.4805 0 24.7346 0 25.0001V31.0001C0 31.2653 0.105103 31.5198 0.292603 31.7073C0.480469 31.8948 0.734619 32.0002 1.00012 31.9999H9C9.26514 32.0002 9.51965 31.8948 9.70715 31.7073C9.89502 31.5198 10.0001 31.2653 10.0001 31.0001V25.0001C10.0001 24.7346 9.89502 24.4805 9.70715 24.2926C9.51965 24.1051 9.26514 24 9 24H6V21H13.9999V22.9999C13.9999 23.2654 14.105 23.5195 14.2928 23.7074C14.4803 23.8949 14.7349 24 15 24H19.0001V31.9999H15C14.7349 31.9999 14.4803 32.105 14.2928 32.2928C14.105 32.4803 13.9999 32.7349 13.9999 33V39C13.9999 39.2651 14.105 39.5197 14.2928 39.7072C14.4803 39.895 14.7349 40.0001 15 40.0001H25.0001C25.2653 40.0001 25.5198 39.895 25.7073 39.7072C25.8948 39.5197 26.0002 39.2651 25.9999 39V33C26.0002 32.7349 25.8948 32.4803 25.7073 32.2928C25.5198 32.105 25.2653 31.9999 25.0001 31.9999H21V24H25.0001C25.2653 24 25.5198 23.8949 25.7073 23.7074C25.8948 23.5195 26.0002 23.2654 25.9999 22.9999V21H34.0001V24H31.0001C30.7346 24 30.4805 24.1051 30.2926 24.2926C30.1051 24.4805 30 24.7346 30 25.0001V31.0001C30 31.2653 30.1051 31.5198 30.2926 31.7073C30.4805 31.8948 30.7346 32.0002 31.0001 31.9999H39C39.2651 32.0002 39.5197 31.8948 39.7072 31.7073C39.895 31.5198 40.0001 31.2653 40.0001 31.0001V25.0001C40.0001 24.7346 39.895 24.4805 39.7072 24.2926C39.5197 24.1051 39.2651 24 39 24Z" fill="black"/>
</g>
<defs>
<clipPath id="clip0_223_1665">
<rect width="40" height="40" fill="white"/>
</clipPath>
</defs>
</svg>
