<svg width="40" height="40" viewBox="0 0 40 40" fill="none" xmlns="http://www.w3.org/2000/svg">
<path d="M20.0001 1.11108C9.50172 1.11108 1.11133 9.62286 1.11133 19.9999C1.11133 30.4791 9.62325 38.8892 19.9958 38.8889C30.4097 38.8887 38.889 30.4529 38.889 19.9999C38.889 9.63496 30.5055 1.11108 20.0001 1.11108ZM15.7925 21.91L14.401 27.9404C14.0523 29.4521 11.9511 29.6894 11.2992 28.2458L8.16866 21.3002L10.259 15.1646C10.4386 14.6377 10.1989 14.0595 9.69924 13.8142L5.50283 11.7537C7.13332 8.88494 9.55758 6.58198 12.4926 5.10526V7.85424C12.4926 8.37701 12.8584 8.82857 13.3699 8.93696L19.037 10.1382C19.8073 10.3012 20.4099 10.8759 20.6095 11.638L21.1451 13.6827C21.3093 14.3107 21.1661 14.9885 20.7621 15.4957L16.0052 21.4693C15.9023 21.5984 15.8296 21.749 15.7925 21.91ZM18.774 36.631L19.4091 35.2905C19.5272 35.0409 19.6584 34.9231 19.8907 34.7825C20.1359 34.6356 20.5079 34.4649 21.1196 34.1579C21.6667 33.884 22.2539 34.0576 22.574 34.4782C22.5739 34.4781 22.574 34.4782 22.574 34.4782L23.8981 36.2167C22.2275 36.6162 20.4941 36.7563 18.774 36.631ZM30.7471 32.7496L29.2968 31.8089L28.6464 25.7808C28.5824 25.1878 28.7363 24.5916 29.0796 24.1025L32.346 19.4534C32.4769 19.2671 32.5473 19.0448 32.5473 18.8171V14.5469L34.6672 12.0591C35.9849 14.4865 36.6756 17.2036 36.6756 19.9999C36.6754 25.0898 34.398 29.6651 30.7471 32.7496Z" fill="#282828"/>
</svg>
