<svg width="40" height="40" viewBox="0 0 40 40" fill="none" xmlns="http://www.w3.org/2000/svg">
<path d="M6.54683 20.0071C6.54683 14.3637 10.0401 9.5215 14.9774 7.52739L17.4967 2.46704C8.90849 3.68712 2.28223 11.0871 2.28223 20.0071C2.28223 28.1225 7.76718 34.9805 15.2244 37.0702L15.7089 32.7584C10.3884 30.9633 6.54683 25.9254 6.54683 20.0071Z" fill="black"/>
<path d="M37.7177 20.0071C37.7177 11.8933 32.2351 5.03657 24.7804 2.94531L24.2849 7.2539C29.6085 9.0473 33.453 14.0866 33.453 20.0071C33.453 25.6176 30.0004 30.436 25.1087 32.4516L22.5195 37.5447C31.0998 36.3177 37.7177 28.9213 37.7177 20.0071Z" fill="black"/>
<path d="M30.141 17.86C30.3089 17.5297 30.293 17.1668 30.0991 16.8509C29.9053 16.5349 29.5612 16.409 29.1905 16.409H21.0849L22.8298 1.2394C22.8893 0.725116 22.5705 0.192307 22.0739 0.0449116C21.9714 0.0145263 21.8676 0 21.7651 0C21.3715 0 20.9994 0.224025 20.8161 0.59198L9.85436 22.6181C9.68991 22.9485 9.70803 23.3884 9.90234 23.7024C10.0968 24.0163 10.4395 24.2719 10.8088 24.2719H18.8075L17.1678 38.8705C17.1105 39.3828 17.4278 39.8137 17.9217 39.9613C18.0231 39.9917 18.1258 40 18.2272 40C18.6201 40 18.9922 39.7818 19.1779 39.4165L30.141 17.86Z" fill="black"/>
</svg>
