<svg width="40" height="40" viewBox="0 0 40 40" fill="none" xmlns="http://www.w3.org/2000/svg">
<path d="M31.8771 11.8914C31.8771 11.7798 31.8635 11.6675 31.8352 11.5568C30.9489 8.07612 28.5743 5.23275 25.4284 3.66942V6.42838C25.4284 7.17787 24.8214 7.78554 24.0713 7.78554C23.3211 7.78554 22.7141 7.17787 22.7141 6.42838V2.73795V2.35691C22.7141 1.60735 22.1065 0.999756 21.3569 0.999756H18.6426C17.8931 0.999756 17.2855 1.60735 17.2855 2.35691V2.73778V6.42838C17.2855 7.17787 16.6778 7.78554 15.9283 7.78554C15.1788 7.78554 14.5712 7.17787 14.5712 6.42838V3.66942C11.4246 5.23267 9.05001 8.07612 8.16377 11.5568C8.1356 11.6676 8.12558 11.7796 8.1308 11.8906C7.16594 12.0503 6.42822 12.8826 6.42822 13.8927C6.42822 15.0171 7.33965 15.9285 8.46396 15.9285H31.5356C32.6599 15.9285 33.5714 15.0171 33.5714 13.8927C33.5714 12.8854 32.8379 12.0545 31.8771 11.8914Z" fill="black"/>
<path d="M29.5002 18.6428H10.5V20C10.5 22.5909 11.545 24.9405 13.2325 26.656C13.2282 26.6998 13.2143 26.7412 13.2143 26.7858V29.0706L19.9663 32.0713L26.7859 28.6612V26.7858C26.7859 26.7411 26.772 26.6996 26.7677 26.6558C28.4552 24.9402 29.5002 22.5907 29.5002 20V18.6428Z" fill="black"/>
<path d="M11.8574 39.0004H28.1433V31.0178L20.6074 34.7858C20.4165 34.8812 20.2084 34.9289 20.0004 34.9289C19.8128 34.9289 19.6246 34.8898 19.449 34.8116L11.8574 31.4376V39.0004Z" fill="black"/>
<path d="M9.14296 31.0095C5.9111 31.9995 3.10542 34.0736 1.22798 36.8904C0.950318 37.3066 0.924474 37.842 1.16039 38.2834C1.39696 38.7247 1.85686 39.0004 2.35718 39.0004H9.14296V31.0095Z" fill="black"/>
<path d="M38.7724 36.8905C36.8951 34.0739 34.0896 31.9998 30.8574 31.0098V39.0005H37.6432C38.1442 39.0005 38.6041 38.7248 38.84 38.2834C39.0759 37.8421 39.0494 37.3067 38.7724 36.8905Z" fill="black"/>
</svg>
