<svg width="40" height="40" viewBox="0 0 40 40" fill="none" xmlns="http://www.w3.org/2000/svg">
<g clip-path="url(#clip0_223_1617)">
<path d="M2.40967 18.8135V19.9862C2.40967 20.5095 2.75662 20.9699 3.26056 21.1143C3.60181 21.2116 11.7224 23.5043 19.9998 23.5043C28.2773 23.5043 36.3978 21.2116 36.7391 21.1143C37.2429 20.9699 37.59 20.5096 37.59 19.9862V18.8135C37.59 18.1654 37.0655 17.6409 36.4173 17.6409H3.58234C2.93417 17.6409 2.40967 18.1654 2.40967 18.8135Z" fill="black"/>
<path d="M34.0718 28.195C34.72 28.195 35.2445 27.6705 35.2445 27.0223V23.9137C33.5792 24.3068 31.0728 24.8326 28.1516 25.2394C27.8564 29.499 24.333 32.8857 19.9997 32.8857C15.6664 32.8857 12.143 29.499 11.8478 25.2394C8.92594 24.8326 6.41985 24.3065 4.75488 23.9136V27.0223C4.75488 27.6705 5.27938 28.195 5.92756 28.195H7.59042C7.86295 29.1536 8.24891 30.0777 8.7448 30.9572L7.5618 32.1402C7.10375 32.5983 7.10375 33.3404 7.5618 33.7985L10.8783 37.1149C11.3363 37.573 12.0785 37.573 12.5365 37.1149L13.7195 35.9319C14.599 36.4278 15.5232 36.8137 16.4817 37.0863V38.8274C16.4817 39.4755 17.0062 40 17.6544 40H22.3451C22.9933 40 23.5178 39.4755 23.5178 38.8274V37.0863C24.4763 36.8138 25.4005 36.4278 26.28 35.9319L27.463 37.1149C27.921 37.573 28.6632 37.573 29.1212 37.1149L32.4377 33.7985C32.8958 33.3404 32.8958 32.5983 32.4377 32.1402L31.2547 30.9572C31.7506 30.0777 32.1365 29.1536 32.4091 28.195H34.0718Z" fill="black"/>
<path d="M18.1364 12.846C17.5457 13.1133 16.85 12.8488 16.5858 12.2597L12.925 4.06456C8.73962 6.26692 5.73389 10.4461 4.98096 15.2956H35.0182C34.2653 10.4461 31.2595 6.26684 27.0742 4.06456L23.4134 12.2597C23.149 12.8492 22.4529 13.113 21.8628 12.846C21.273 12.5804 21.0096 11.8864 21.2765 11.2954L25.3286 2.23119C25.6199 1.58513 25.2847 0.797244 24.6007 0.611883C21.5917 -0.203987 18.4071 -0.203987 15.3981 0.612039C14.7141 0.797401 14.3789 1.58528 14.6702 2.23135L18.7227 11.2954C18.9895 11.8864 18.7273 12.5804 18.1364 12.846Z" fill="black"/>
</g>
<defs>
<clipPath id="clip0_223_1617">
<rect width="40" height="40" fill="white"/>
</clipPath>
</defs>
</svg>
