<svg width="40" height="40" viewBox="0 0 40 40" fill="none" xmlns="http://www.w3.org/2000/svg">
<g clip-path="url(#clip0_223_1636)">
<path d="M39.199 6.32516L33.6747 0.800859C32.6069 -0.266953 30.8756 -0.266953 29.8078 0.800859L29.2554 1.35328C28.7977 1.81094 28.7977 2.55289 29.2554 3.01055L36.9893 10.7445C37.447 11.2022 38.1889 11.2022 38.6466 10.7445L39.199 10.1921C40.2668 9.12438 40.2668 7.39305 39.199 6.32516Z" fill="black"/>
<path d="M26.0499 8.97827L22.6263 12.4019C22.4762 12.552 22.3696 12.7402 22.318 12.9463L21.2132 17.3658C21.1134 17.7651 21.2304 18.1876 21.5215 18.4786C21.8126 18.7697 22.235 18.8866 22.6343 18.7869L27.0538 17.682C27.2598 17.6305 27.448 17.524 27.5982 17.3737L27.7072 17.2648L26.0499 8.97827Z" fill="black"/>
<path d="M28.9791 6.04907L28.0415 6.98665L29.6988 15.2731L33.951 11.0209L28.9791 6.04907Z" fill="black"/>
<path d="M34.813 28.0559L30.6941 23.937C30.4744 23.7173 30.1763 23.5938 29.8655 23.5938H24.0407C23.7299 23.5938 23.4319 23.7172 23.2121 23.937L19.0933 28.0559C18.8735 28.2755 18.75 28.5737 18.75 28.8845V34.7094C18.75 35.0202 18.8735 35.3183 19.0933 35.538L23.2121 39.6568C23.4319 39.8766 23.7299 40.0001 24.0407 40.0001H29.8655C30.1763 40.0001 30.4744 39.8766 30.6941 39.6568L34.813 35.538C35.0327 35.3183 35.1562 35.0202 35.1562 34.7094V28.8845C35.1562 28.5737 35.0327 28.2756 34.813 28.0559ZM26.9531 35.3126C25.0115 35.3126 23.4375 33.7386 23.4375 31.797C23.4375 29.8553 25.0115 28.2813 26.9531 28.2813C28.8948 28.2813 30.4688 29.8553 30.4688 31.797C30.4688 33.7386 28.8948 35.3126 26.9531 35.3126Z" fill="black"/>
<path d="M10.3516 26.8411V13.1584C13.0275 12.0097 14.8438 9.3518 14.8438 6.33899C14.8438 3.79235 13.5544 1.54134 11.5942 0.204148C10.8182 -0.325305 9.76562 0.235945 9.76562 1.1754V6.34923H5.07812V1.1754C5.07812 0.235945 4.02555 -0.325305 3.24953 0.204148C1.28938 1.54134 0 3.79235 0 6.33899C0 9.3518 1.81625 12.0097 4.49219 13.1584V26.841C1.81625 27.9898 0 30.6477 0 33.6606C0 36.2072 1.28938 38.4582 3.24953 39.7954C4.02555 40.3249 5.07812 39.7636 5.07812 38.8241V33.6503H9.76562V38.8241C9.76562 39.7636 10.8182 40.3248 11.5942 39.7953C13.5544 38.4582 14.8438 36.2072 14.8438 33.6606C14.8438 30.6477 13.0275 27.9898 10.3516 26.8411Z" fill="black"/>
</g>
<defs>
<clipPath id="clip0_223_1636">
<rect width="40" height="40" fill="white"/>
</clipPath>
</defs>
</svg>
