<svg width="40" height="40" viewBox="0 0 40 40" fill="none" xmlns="http://www.w3.org/2000/svg">
<path d="M20.0002 24.891C22.6994 24.891 24.8876 22.7028 24.8876 20.0036C24.8876 17.3044 22.6994 15.1162 20.0002 15.1162C17.301 15.1162 15.1128 17.3044 15.1128 20.0036C15.1128 22.7028 17.301 24.891 20.0002 24.891Z" fill="#282828"/>
<path d="M39.3865 18.2977C34.6529 12.5776 27.4876 7.07153 20.0001 7.07153C12.5111 7.07153 5.34409 12.5815 0.613691 18.2977C-0.204564 19.2861 -0.204564 20.7209 0.613691 21.7093C1.80297 23.1464 4.29622 25.9206 7.6262 28.3446C16.0126 34.4497 23.969 34.4632 32.374 28.3446C35.7039 25.9206 38.1972 23.1464 39.3865 21.7093C40.2023 20.7228 40.2066 19.2893 39.3865 18.2977ZM20.0001 11.3822C24.7541 11.3822 28.6214 15.2495 28.6214 20.0035C28.6214 24.7575 24.7541 28.6248 20.0001 28.6248C15.246 28.6248 11.3788 24.7575 11.3788 20.0035C11.3788 15.2495 15.246 11.3822 20.0001 11.3822Z" fill="#282828"/>
</svg>
