<svg width="40" height="40" viewBox="0 0 40 40" fill="none" xmlns="http://www.w3.org/2000/svg">
<g clip-path="url(#clip0_223_1652)">
<path fill-rule="evenodd" clip-rule="evenodd" d="M20 13.5293C16.4264 13.5293 13.5294 10.6324 13.5294 7.05868C13.5294 3.48501 16.4264 0.588135 20 0.588135C23.5736 0.588135 26.4706 3.48509 26.4706 7.05876C26.4706 10.6324 23.5736 13.5293 20 13.5293ZM21.0042 6.39915L18.3067 3.70165C18.077 3.47188 17.7045 3.47188 17.4748 3.70165L16.6429 4.53352C16.4132 4.76329 16.4132 5.13571 16.6429 5.3654L19.3404 8.0629C19.5701 8.29267 19.9426 8.29267 20.1723 8.0629L21.0041 7.23102C21.2339 7.00134 21.2339 6.62892 21.0042 6.39915ZM34.1177 38.2352V29.9999C34.1177 29.0253 33.3276 28.2352 32.353 28.2352H28.8236V22.3529H31.7648C36.313 22.3529 40.0001 26.0399 40.0001 30.5882V38.2352C40.0001 38.885 39.4734 39.4117 38.8236 39.4117H35.2942C34.6444 39.4117 34.1177 38.8849 34.1177 38.2352ZM0 38.2352V30.5882C0 26.04 3.68703 22.3529 8.23531 22.3529H11.1765V28.2352H7.64703C6.67242 28.2352 5.88234 29.0253 5.88234 29.9999V38.2352C5.88234 38.885 5.35563 39.4117 4.70586 39.4117H1.17648C0.526719 39.4117 0 38.8849 0 38.2352H0ZM14.1177 20.5881H25.8823C26.5321 20.5881 27.0588 21.1149 27.0588 21.7646V28.8234C27.0588 29.4732 26.5321 29.9999 25.8823 29.9999H14.1177C13.4679 29.9999 12.9412 29.4732 12.9412 28.8234V21.7646C12.9412 21.1149 13.4679 20.5881 14.1177 20.5881ZM23.5294 18.8234H16.4705V14.5015C17.5402 15.0097 18.7369 15.294 19.9999 15.294C21.263 15.294 22.4596 15.0096 23.5293 14.5015V18.8234H23.5294Z" fill="black"/>
</g>
<defs>
<clipPath id="clip0_223_1652">
<rect width="40" height="40" fill="white"/>
</clipPath>
</defs>
</svg>
