<svg width="40" height="40" viewBox="0 0 40 40" fill="none" xmlns="http://www.w3.org/2000/svg">
<g clip-path="url(#clip0_223_1063)">
<path d="M21.7707 0C9.73875 0 0 9.73711 0 21.7707C0 22.4185 0.525156 22.9437 1.17297 22.9437H21.7707C22.4185 22.9437 22.9437 22.4185 22.9437 21.7707V1.17297C22.9437 0.525156 22.4185 0 21.7707 0Z" fill="#282828"/>
<path d="M13.4252 26.335C13.2195 25.9592 12.825 25.7256 12.3966 25.7256H5.45953C5.08617 25.7256 4.735 25.9033 4.51406 26.2044C4.29305 26.5055 4.22867 26.8936 4.34047 27.2499C6.54977 34.2865 12.9221 39.5181 20.5975 40V31.2079C17.587 30.8343 14.9065 29.0392 13.4252 26.335Z" fill="#282828"/>
<path d="M27.2499 4.34089C26.8937 4.22917 26.5054 4.29363 26.2044 4.51449C25.9033 4.7355 25.7256 5.08659 25.7256 5.46003V12.397C25.7256 12.8253 25.9593 13.2197 26.335 13.4256C29.039 14.907 30.8342 17.5875 31.2078 20.5978H40C39.5169 12.9058 34.2699 6.54503 27.2499 4.34089Z" fill="#282828"/>
<path d="M31.2093 22.9436C30.6772 27.252 27.2523 30.677 22.9438 31.2091V39.9991C32.0964 39.423 39.4224 32.1087 39.9992 22.9436H31.2093Z" fill="#282828"/>
</g>
<defs>
<clipPath id="clip0_223_1063">
<rect width="40" height="40" fill="white"/>
</clipPath>
</defs>
</svg>
