<svg width="40" height="40" viewBox="0 0 40 40" fill="none" xmlns="http://www.w3.org/2000/svg">
<g clip-path="url(#clip0_223_1612)">
<path d="M17.2731 39.9899C8.23668 38.8602 1.13795 31.7615 0.00942575 22.7273C-0.0790251 22.0293 0.466291 21.4099 1.17234 21.4099H5.90977C6.48204 21.4099 6.96961 21.8231 7.0658 22.3862C7.97687 27.7818 12.2152 32.0214 17.6143 32.9335C18.1774 33.0296 18.5906 33.5173 18.5906 34.0896V38.827C18.5905 39.524 17.9862 40.0748 17.2731 39.9899Z" fill="black"/>
<path d="M5.91025 18.7533H1.17281C0.46638 18.7533 -0.0784675 18.1335 0.00990514 17.4359C1.25064 7.4963 9.74348 0.000488281 19.7631 0.000488281C24.2144 0.000488281 28.4345 1.4518 31.9678 4.19768C32.5297 4.63611 32.5718 5.45818 32.0776 5.95232L28.7286 9.30251C28.3234 9.70882 27.687 9.75922 27.22 9.42839C25.0212 7.86144 22.4425 7.0328 19.763 7.0328C13.4576 7.0328 8.11691 11.5516 7.0662 17.777C6.97009 18.34 6.48252 18.7533 5.91025 18.7533Z" fill="black"/>
<path d="M21.2471 38.8282V34.0908C21.2471 33.5185 21.6603 33.0309 22.2234 32.9348C28.4488 31.884 32.9676 26.5434 32.9676 20.2379C32.9676 17.5585 32.1389 14.9797 30.572 12.7809C30.2401 12.3151 30.2927 11.6764 30.6979 11.2724L34.0481 7.92334C34.5359 7.43553 35.3605 7.46647 35.8027 8.0332C38.5486 11.5665 39.9999 15.7866 39.9999 20.2378C39.9999 30.2575 32.504 38.7503 22.5645 39.9911C21.8436 40.077 21.2471 39.5172 21.2471 38.8282Z" fill="black"/>
<path d="M15.3088 15.3154C15.3088 14.6681 14.784 14.1433 14.1368 14.1433H11.7927C11.1454 14.1433 10.6206 14.6681 10.6206 15.3154V24.6918C10.6206 25.3391 11.1454 25.8638 11.7927 25.8638H14.1368C14.784 25.8638 15.3088 25.3391 15.3088 24.6918V15.3154Z" fill="black"/>
<path d="M22.341 24.6916V12.9711C22.341 12.3238 21.8163 11.7991 21.169 11.7991H18.8249C18.1776 11.7991 17.6528 12.3238 17.6528 12.9711V24.6916C17.6528 25.3389 18.1776 25.8637 18.8249 25.8637H21.169C21.8163 25.8637 22.341 25.3389 22.341 24.6916Z" fill="black"/>
<path d="M29.3733 24.6918V20.0036C29.3733 19.3563 28.8485 18.8315 28.2012 18.8315H25.8571C25.2098 18.8315 24.6851 19.3563 24.6851 20.0036V24.6918C24.6851 25.3391 25.2098 25.8639 25.8571 25.8639H28.2012C28.8486 25.8639 29.3733 25.3391 29.3733 24.6918Z" fill="black"/>
</g>
<defs>
<clipPath id="clip0_223_1612">
<rect width="40" height="40" fill="white"/>
</clipPath>
</defs>
</svg>
