<svg width="40" height="40" viewBox="0 0 40 40" fill="none" xmlns="http://www.w3.org/2000/svg">
<path d="M36.5272 8.9116L30.4369 3.34093C30.1494 3.07527 29.7723 2.92773 29.3808 2.92773C28.9893 2.92773 28.6123 3.07527 28.3247 3.34093L22.2345 8.9116C22.0392 9.09016 21.9025 9.32356 21.8422 9.5812C21.7819 9.83884 21.8008 10.1087 21.8966 10.3554C21.9923 10.602 22.1603 10.814 22.3787 10.9635C22.597 11.113 22.8554 11.1931 23.12 11.1932H25.5376C25.6099 11.1933 25.6793 11.2221 25.7305 11.2732C25.7817 11.3244 25.8104 11.3938 25.8105 11.4662V27.7312C25.8109 28.0721 25.9465 28.399 26.1876 28.64C26.4287 28.8811 26.7556 29.0167 27.0965 29.017H31.5306C31.8715 29.0166 32.1983 28.8811 32.4394 28.6401C32.6805 28.399 32.8161 28.0722 32.8165 27.7313V11.4662C32.8166 11.3938 32.8454 11.3244 32.8966 11.2732C32.9478 11.222 33.0172 11.1932 33.0896 11.1932H35.6417C35.9063 11.1931 36.1647 11.113 36.383 10.9635C36.6013 10.814 36.7694 10.602 36.8651 10.3554C36.9609 10.1087 36.9798 9.83884 36.9195 9.5812C36.8592 9.32356 36.7224 9.09016 36.5272 8.9116Z" fill="black"/>
<path d="M32.2539 34.0981H26.373C26.112 34.0981 25.8616 34.2019 25.677 34.3865C25.4924 34.5711 25.3887 34.8214 25.3887 35.0825C25.3887 35.3436 25.4924 35.594 25.677 35.7786C25.8616 35.9632 26.112 36.0669 26.373 36.0669H32.2539C32.515 36.0669 32.7654 35.9632 32.95 35.7786C33.1346 35.594 33.2383 35.3436 33.2383 35.0825C33.2383 34.8214 33.1346 34.5711 32.95 34.3865C32.7654 34.2019 32.515 34.0981 32.2539 34.0981Z" fill="black"/>
<path d="M32.2539 30.9888H26.373C26.112 30.9888 25.8616 31.0925 25.677 31.2771C25.4924 31.4617 25.3887 31.7121 25.3887 31.9731C25.3887 32.2342 25.4924 32.4846 25.677 32.6692C25.8616 32.8538 26.112 32.9575 26.373 32.9575H32.2539C32.515 32.9575 32.7654 32.8538 32.95 32.6692C33.1346 32.4846 33.2383 32.2342 33.2383 31.9731C33.2383 31.7121 33.1346 31.4617 32.95 31.2771C32.7654 31.0925 32.515 30.9888 32.2539 30.9888Z" fill="black"/>
<path d="M10.155 22.887H5.92221C5.15643 22.887 4.53564 23.5077 4.53564 24.2735V34.8215C4.53564 35.5873 5.15643 36.2081 5.92221 36.2081H10.155C10.9208 36.2081 11.5416 35.5873 11.5416 34.8215V24.2735C11.5416 23.5077 10.9208 22.887 10.155 22.887Z" fill="black"/>
<path d="M16.0456 16.6489H20.2789C20.6467 16.6489 20.9993 16.795 21.2593 17.055C21.5193 17.315 21.6654 17.6677 21.6654 18.0354V34.8212C21.6654 35.1889 21.5193 35.5415 21.2593 35.8015C20.9993 36.0615 20.6467 36.2076 20.2789 36.2076H16.0456C15.6779 36.2076 15.3253 36.0615 15.0653 35.8015C14.8053 35.5415 14.6592 35.1889 14.6592 34.8212V18.0352C14.6592 17.8531 14.695 17.6728 14.7647 17.5046C14.8344 17.3364 14.9365 17.1836 15.0653 17.0549C15.194 16.9261 15.3469 16.824 15.5151 16.7544C15.6833 16.6847 15.8636 16.6489 16.0456 16.6489Z" fill="black"/>
</svg>
