<svg width="40" height="40" viewBox="0 0 40 40" fill="none" xmlns="http://www.w3.org/2000/svg">
<g clip-path="url(#clip0_223_1644)">
<path d="M5.85938 33.75V36.4844C5.85938 38.4229 7.43648 40 9.375 40H11.7188C13.6573 40 15.2344 38.4229 15.2344 36.4844V33.75H5.85938Z" fill="black"/>
<path d="M10.5469 9.53125C4.73133 9.53125 0 14.2626 0 20.0781C0 23.2068 1.37695 26.1545 3.77766 28.1657C4.79078 29.0143 5.4725 30.1563 5.73648 31.4062H9.375V23.6885L6.98383 21.2974C6.52617 20.8398 6.52617 20.0978 6.98383 19.6402C7.44148 19.1825 8.18344 19.1825 8.64109 19.6402L10.5469 21.5459L12.4527 19.6401C12.9103 19.1824 13.6523 19.1824 14.1099 19.6401C14.5676 20.0977 14.5676 20.8397 14.1099 21.2973L11.7188 23.6885V31.4062H15.3573C15.6213 30.1562 16.303 29.0143 17.3161 28.1657C19.7168 26.1545 21.0938 23.2068 21.0938 20.0781C21.0938 14.2626 16.3624 9.53125 10.5469 9.53125Z" fill="black"/>
<path d="M38.5407 31.1272C38.5536 30.9541 38.5598 30.7886 38.5598 30.625C38.5598 30.4614 38.5536 30.2959 38.5407 30.1227L39.6426 29.0573C40.0291 28.6835 40.1117 28.0946 39.8428 27.6289L37.8897 24.2459C37.6208 23.7802 37.0693 23.5577 36.5525 23.7052L35.0766 24.1273C34.7982 23.9414 34.5084 23.7738 34.2092 23.6255L33.8372 22.1376C33.7068 21.616 33.2381 21.25 32.7004 21.25H28.7941C28.2564 21.25 27.7876 21.616 27.6572 22.1377L27.2853 23.6255C26.9861 23.7738 26.6963 23.9415 26.4179 24.1274L24.942 23.7052C24.425 23.5573 23.8736 23.7803 23.6048 24.246L21.6517 27.629C21.3829 28.0947 21.4654 28.6836 21.8519 29.0573L22.9538 30.1228C22.9409 30.2959 22.9347 30.4615 22.9347 30.6251C22.9347 30.7887 22.9409 30.9541 22.9538 31.1273L21.8519 32.1927C21.4654 32.5665 21.3828 33.1554 21.6517 33.6211L23.6048 37.0041C23.8736 37.4698 24.4251 37.6924 24.942 37.5448L26.4178 37.1227C26.6962 37.3086 26.9859 37.4762 27.2853 37.6246L27.6572 39.1125C27.7876 39.6342 28.2564 40.0002 28.7941 40.0002H32.7004C33.2381 40.0002 33.7068 39.6341 33.8372 39.1125L34.2092 37.6246C34.5086 37.4762 34.7983 37.3086 35.0767 37.1227L36.5525 37.5448C37.0695 37.6929 37.6208 37.4698 37.8897 37.0041L39.8428 33.6211C40.1116 33.1554 40.0291 32.5665 39.6426 32.1927L38.5407 31.1272ZM30.7472 34.1406C28.8087 34.1406 27.2316 32.5635 27.2316 30.625C27.2316 28.6865 28.8087 27.1094 30.7472 27.1094C32.6858 27.1094 34.2629 28.6865 34.2629 30.625C34.2629 32.5635 32.6858 34.1406 30.7472 34.1406Z" fill="black"/>
<path d="M34.7011 13.6245C34.2434 13.1669 33.5015 13.1669 33.0438 13.6245L31.9193 14.7491V5.85938C31.9193 2.62852 29.2908 0 26.0599 0H15.2344C12.0035 0 9.375 2.62852 9.375 5.85938V7.24133C9.76109 7.20633 10.1518 7.1875 10.5469 7.1875C10.942 7.1875 11.3327 7.20633 11.7188 7.24133V5.85938C11.7188 3.92086 13.2959 2.34375 15.2344 2.34375H26.0599C27.9984 2.34375 29.5755 3.92086 29.5755 5.85938V14.749L28.451 13.6245C27.9934 13.1668 27.2514 13.1668 26.7937 13.6245C26.3361 14.0821 26.3361 14.8241 26.7937 15.2817L29.9187 18.4067C30.3764 18.8644 31.1184 18.8644 31.576 18.4067L34.701 15.2817C35.1588 14.8241 35.1588 14.0821 34.7011 13.6245Z" fill="black"/>
</g>
<defs>
<clipPath id="clip0_223_1644">
<rect width="40" height="40" fill="white"/>
</clipPath>
</defs>
</svg>
