<svg width="40" height="40" viewBox="0 0 40 40" fill="none" xmlns="http://www.w3.org/2000/svg">
<path d="M20.1349 1C12.341 1 6 7.34088 6 15.1349C6.00009 19.9145 8.4403 24.3819 12.4192 26.9797V27.5693H18.7721V20.524C17.003 19.9485 15.7203 18.2846 15.7203 16.326C15.7203 15.5736 16.3304 14.9636 17.0828 14.9636C17.8352 14.9636 18.4452 15.5736 18.4452 16.326C18.4452 17.2574 19.203 18.0153 20.1346 18.0153C21.0661 18.0153 21.8238 17.2575 21.8238 16.326C21.8238 15.5736 22.4338 14.9636 23.1862 14.9636C23.9387 14.9636 24.5487 15.5736 24.5487 16.326C24.5487 18.2846 23.2661 19.9485 21.4969 20.524V27.5693H27.8501V26.9799C31.8293 24.382 34.2697 19.9146 34.2697 15.1349C34.2698 7.34097 27.9289 1 20.1349 1Z" fill="black"/>
<path d="M12.4194 30.2942V31.433C12.4194 35.6874 15.8806 39.1484 20.135 39.1484C24.3894 39.1484 27.8506 35.6873 27.8506 31.433V30.2942H12.4194Z" fill="black"/>
</svg>
