<svg width="40" height="40" viewBox="0 0 40 40" fill="none" xmlns="http://www.w3.org/2000/svg">
<g clip-path="url(#clip0_223_1620)">
<path d="M20.6597 20.3272C21.9124 19.2545 22.7086 17.663 22.7086 15.8881C22.7086 12.6649 20.0862 10.0425 16.8633 10.0425C15.3017 10.0425 13.8338 10.6504 12.7297 11.7545C11.6255 12.8586 11.0176 14.3265 11.0176 15.8881C11.0176 17.4494 11.6255 18.9173 12.7297 20.0214C12.8374 20.1292 12.9494 20.2308 13.0638 20.329C11.7675 21.0096 10.6636 22.0325 9.88574 23.2999C11.6222 25.1807 14.1072 26.3608 16.8633 26.3608C19.6187 26.3608 22.1038 25.1807 23.8405 23.2996C23.062 22.0316 21.9573 21.0081 20.6597 20.3272Z" fill="black"/>
<path d="M33.7256 16.8628C33.7256 12.3587 31.9714 8.12408 28.7866 4.93896C25.6015 1.75415 21.3672 0 16.8628 0C12.3587 0 8.12408 1.75415 4.93896 4.93896C1.75415 8.12378 0 12.3587 0 16.8628C0 21.3672 1.75385 25.6018 4.93896 28.7869C8.12408 31.9717 12.3587 33.7259 16.8628 33.7259C21.3669 33.7259 25.6015 31.9717 28.7866 28.7869C31.9714 25.6018 33.7256 21.3672 33.7256 16.8628ZM16.8628 28.7045C10.3333 28.7045 5.02106 23.3923 5.02106 16.8628C5.02106 10.3333 10.3333 5.02106 16.8628 5.02106C23.3923 5.02106 28.7045 10.3333 28.7045 16.8628C28.7045 23.3923 23.3926 28.7045 16.8628 28.7045Z" fill="black"/>
<path d="M38.7399 32.6443L33.1503 27.0544C32.3873 28.2684 31.4828 29.4055 30.4443 30.4443C29.4055 31.4828 28.2687 32.3871 27.0547 33.15L32.6446 38.7399C33.4847 39.5798 34.5886 40 35.6921 40C36.7959 40 37.8997 39.5798 38.7402 38.7396C40.4202 37.059 40.4202 34.3246 38.7399 32.6443Z" fill="black"/>
</g>
<defs>
<clipPath id="clip0_223_1620">
<rect width="40" height="40" fill="white"/>
</clipPath>
</defs>
</svg>
