<svg width="40" height="40" viewBox="0 0 40 40" fill="none" xmlns="http://www.w3.org/2000/svg">
<g clip-path="url(#clip0_223_1628)">
<path d="M16.5676 22.8141H8.16892V21.5196C8.18387 20.696 7.55473 20.0158 6.76377 20.0003C6.75693 20.0001 6.75008 20 6.74324 20H3.41216C2.62103 20.0037 1.98269 20.6745 1.98623 21.4982C1.98623 21.5054 1.98632 21.5125 1.98649 21.5196V22.8141H1.43243C0.641301 22.8141 0 23.4818 0 24.3055V32.5085C0 33.3323 0.641301 34 1.43243 34H16.5676C17.3587 34 18 33.3323 18 32.5085V24.2704C17.9817 23.4604 17.3457 22.8138 16.5676 22.8141Z" fill="black"/>
<path d="M28.1112 9.14622C28.1088 9.14622 28.1065 9.14622 28.104 9.14622H27.5179V7.85823C27.5179 7.011 26.8311 6.32422 25.9839 6.32422H22.4238C21.5766 6.32422 20.8898 7.011 20.8898 7.85823V9.14622H19.1098V7.85823C19.1098 7.011 18.423 6.32422 17.5758 6.32422H14.0157C13.1685 6.32422 12.4817 7.011 12.4817 7.85823V9.14622H11.8956C11.0484 9.14622 10.3616 9.83299 10.3616 10.6802V19.1607C10.3456 20.0077 11.0194 20.7074 11.8664 20.7234C11.8762 20.7235 11.8858 20.7236 11.8956 20.7236H28.104C28.9512 20.7236 29.638 20.0369 29.638 19.1896V10.6875C29.642 9.84023 28.9585 9.1502 28.1112 9.14622Z" fill="black"/>
<path d="M38.5676 22.8141H38.0135V21.5196C38.0285 20.696 37.3993 20.0158 36.6084 20.0003C36.6015 20.0001 36.5947 20 36.5878 20H33.2568C32.4656 20 31.8243 20.6677 31.8243 21.4915V22.8141H23.4324C22.6543 22.8138 22.0183 23.4604 22 24.2704V32.5085C22 33.3323 22.6413 34 23.4324 34H38.5676C39.3587 34 40 33.3323 40 32.5085V24.2704C39.9817 23.4604 39.3457 22.8138 38.5676 22.8141Z" fill="black"/>
</g>
<defs>
<clipPath id="clip0_223_1628">
<rect width="40" height="40" fill="white"/>
</clipPath>
</defs>
</svg>
