<svg width="40" height="40" viewBox="0 0 40 40" fill="none" xmlns="http://www.w3.org/2000/svg">
<g clip-path="url(#clip0_223_1656)">
<path d="M31.7188 23.5938V37.6562H38.8281C39.4753 37.6562 40 37.1316 40 36.4844V24.7656C40 24.1184 39.4753 23.5938 38.8281 23.5938H31.7188Z" fill="black"/>
<path d="M0 24.7656V36.4844C0 37.1316 0.524687 37.6562 1.17188 37.6562H8.28125V23.5938H1.17188C0.524687 23.5938 0 24.1184 0 24.7656Z" fill="black"/>
<path d="M27.0312 21.25H12.9688C11.6743 21.25 10.625 22.2993 10.625 23.5938V37.6562C10.625 38.9507 11.6743 40 12.9688 40H27.0312C28.3257 40 29.375 38.9507 29.375 37.6562V23.5938C29.375 22.2993 28.3257 21.25 27.0312 21.25ZM20 36.4844C17.6307 36.4844 15.7031 34.5568 15.7031 32.1875C15.7031 31.5891 15.8815 30.486 17.4238 27.8272C18.2191 26.4562 19.0028 25.3191 19.0358 25.2714C19.2546 24.9547 19.615 24.7656 20 24.7656C20.385 24.7656 20.7454 24.9547 20.9642 25.2715C20.9972 25.3192 21.7809 26.4563 22.5762 27.8273C24.1185 30.486 24.2969 31.5891 24.2969 32.1875C24.2969 34.5568 22.3693 36.4844 20 36.4844Z" fill="black"/>
<path d="M18.0469 32.1875C18.0469 33.2645 18.923 34.1407 20 34.1407C21.077 34.1407 21.9531 33.2645 21.9531 32.1875C21.9531 31.5612 21.0564 29.7945 20 28.0828C18.9437 29.7944 18.0469 31.5612 18.0469 32.1875Z" fill="black"/>
<path d="M26.25 16.9531C26.25 16.0902 25.5505 15.3906 24.6875 15.3906H15.3125C14.4495 15.3906 13.75 16.0902 13.75 16.9531V18.9062H26.25V16.9531Z" fill="black"/>
<path d="M25.2792 8.59375H17.6562C16.3618 8.59375 15.3125 7.54445 15.3125 6.25C15.3125 4.95555 16.3618 3.90625 17.6562 3.90625H25.2791L27.8125 1.37297C28.6916 0.493828 29.8838 0 31.127 0H38.8281C39.4753 0 40 0.524687 40 1.17188V3.51562C40 4.16281 39.4753 4.6875 38.8281 4.6875H31.1271L28.5938 7.22078C27.7147 8.09992 26.5224 8.59375 25.2792 8.59375Z" fill="black"/>
<path d="M17.6562 10.9375H22.3438V13.0469H17.6562V10.9375Z" fill="black"/>
<path d="M19.9999 0C18.9795 0 18.1118 0.652266 17.79 1.5625H22.2098C21.8879 0.652266 21.0203 0 19.9999 0Z" fill="black"/>
</g>
<defs>
<clipPath id="clip0_223_1656">
<rect width="40" height="40" fill="white"/>
</clipPath>
</defs>
</svg>
