<svg width="40" height="40" viewBox="0 0 40 40" fill="none" xmlns="http://www.w3.org/2000/svg">
<path d="M19.9998 1.66675C16.3739 1.66675 12.8293 2.74198 9.81439 4.75647C6.79949 6.77096 4.44966 9.63424 3.06205 12.9842C1.67445 16.3342 1.31139 20.0204 2.01878 23.5767C2.72618 27.1331 4.47226 30.3997 7.03622 32.9637C9.60018 35.5277 12.8669 37.2738 16.4232 37.9811C19.9795 38.6885 23.6657 38.3255 27.0157 36.9379C30.3657 35.5503 33.229 33.2004 35.2435 30.1855C37.2579 27.1706 38.3332 23.6261 38.3332 20.0001C38.3274 15.1395 36.3941 10.4797 32.9571 7.04279C29.5202 3.60587 24.8604 1.67248 19.9998 1.66675ZM27.8448 17.0117L19.5115 25.3451C19.199 25.6575 18.7751 25.8331 18.3332 25.8331C17.8912 25.8331 17.4674 25.6575 17.1548 25.3451L12.1548 20.3451C11.9957 20.1913 11.8687 20.0074 11.7813 19.8041C11.694 19.6007 11.648 19.382 11.6461 19.1607C11.6442 18.9395 11.6863 18.72 11.7701 18.5152C11.8539 18.3103 11.9777 18.1242 12.1342 17.9678C12.2907 17.8113 12.4768 17.6875 12.6816 17.6037C12.8864 17.5199 13.1059 17.4777 13.3272 17.4797C13.5485 17.4816 13.7672 17.5276 13.9705 17.6149C14.1739 17.7023 14.3578 17.8292 14.5115 17.9884L18.3332 21.8101L25.4882 14.6551C25.8025 14.3515 26.2235 14.1835 26.6605 14.1873C27.0975 14.1911 27.5155 14.3664 27.8245 14.6754C28.1336 14.9844 28.3088 15.4024 28.3126 15.8394C28.3164 16.2764 28.1484 16.6974 27.8448 17.0117Z" fill="black"/>
</svg>
