<svg width="40" height="40" viewBox="0 0 40 40" fill="none" xmlns="http://www.w3.org/2000/svg">
<g clip-path="url(#clip0_223_1633)">
<path d="M36.4844 15.3125C35.5096 15.3125 33.7525 15.6702 31.993 17.7186C29.8616 15.5199 26.8123 14.1406 23.5156 14.1406H14.0625C13.6219 14.1406 13.1779 14.1704 12.703 14.2322C10.7517 11.1457 7.2075 11.2899 5.4932 11.8552C5.10641 11.9823 4.81344 12.3016 4.71961 12.6975C4.62461 13.0935 4.7425 13.51 5.03086 13.7973C5.70609 14.4725 6.23938 15.5242 6.5918 16.8643C5.19336 18.035 4.09477 19.5033 3.36578 21.1719H1.17188C0.524141 21.1719 0 21.696 0 22.3438V29.375C0 30.0227 0.524141 30.5469 1.17188 30.5469H3.36688C4.59141 33.3313 6.88023 35.6227 9.70344 36.7625L9.39102 38.6359C9.33383 38.9758 9.42992 39.3225 9.65305 39.5857C9.87508 39.8489 10.2023 40 10.5468 40H15.2343C15.8077 40 16.2963 39.5857 16.3902 39.0204L16.618 37.6563H20.9602L21.1879 39.0204C21.2817 39.5857 21.7704 40 22.3438 40H27.0312C27.3757 40 27.703 39.8489 27.925 39.5857C28.1481 39.3225 28.2443 38.9757 28.187 38.6359L27.8758 36.7648C32.3173 34.9932 35.3125 30.6842 35.3125 25.8594C35.3125 23.5657 34.6252 21.4397 33.4814 19.6306C34.4377 18.3747 35.484 17.6563 36.4844 17.6563C37.155 17.6563 37.6562 17.9652 37.6562 18.2422C37.6562 18.6942 37.203 18.9758 37.2008 18.9769C36.6355 19.2939 36.4341 20.008 36.7499 20.5722C37.0659 21.1352 37.7782 21.3389 38.3452 21.0231C38.9598 20.6787 40 19.7059 40 18.2422C40 16.5988 38.4562 15.3125 36.4844 15.3125ZM10.5469 23.5156C9.89969 23.5156 9.375 22.991 9.375 22.3438C9.375 21.6964 9.89969 21.1719 10.5469 21.1719C11.1941 21.1719 11.7188 21.6964 11.7188 22.3438C11.7188 22.991 11.1941 23.5156 10.5469 23.5156ZM24.6875 21.1719H15.2344C14.5866 21.1719 14.0625 20.6477 14.0625 20C14.0625 19.3523 14.5866 18.8281 15.2344 18.8281H24.6875C25.3352 18.8281 25.8594 19.3523 25.8594 20C25.8594 20.6477 25.3352 21.1719 24.6875 21.1719Z" fill="black"/>
<path d="M14.0625 5.9375C14.0625 9.1682 16.7693 11.7969 20 11.7969C23.2307 11.7969 25.8594 9.1682 25.8594 5.9375C25.8594 2.7068 23.2307 0 20 0C16.7693 0 14.0625 2.7068 14.0625 5.9375Z" fill="black"/>
</g>
<defs>
<clipPath id="clip0_223_1633">
<rect width="40" height="40" fill="white"/>
</clipPath>
</defs>
</svg>
