<svg width="40" height="40" viewBox="0 0 40 40" fill="none" xmlns="http://www.w3.org/2000/svg">
<g clip-path="url(#clip0_223_1627)">
<path d="M38.8279 0H26.2759C25.6286 0 25.104 0.524687 25.104 1.17188V6.19273C25.104 6.83992 25.6286 7.36461 26.2759 7.36461H38.8279C39.475 7.36461 39.9998 6.83992 39.9998 6.19273V1.17188C39.9998 0.524687 39.475 0 38.8279 0Z" fill="black"/>
<path d="M22.5106 12.552H17.4897C16.8426 12.552 16.3179 13.0767 16.3179 13.7239V26.276C16.3179 26.9232 16.8426 27.4479 17.4897 27.4479H22.5106C23.1577 27.4479 23.6825 26.9232 23.6825 26.276V13.7239C23.6825 13.0767 23.1577 12.552 22.5106 12.552Z" fill="black"/>
<path d="M13.724 32.6355H1.17188C0.524609 32.6355 0 33.1602 0 33.8074V38.8282C0 39.4754 0.524609 40.0001 1.17188 40.0001H13.724C14.3712 40.0001 14.8959 39.4754 14.8959 38.8282V33.8074C14.8959 33.1602 14.3712 32.6355 13.724 32.6355Z" fill="black"/>
<path d="M13.9741 30.2917V27.065V13.8074H8.70334C4.59646 13.8074 1.25537 17.1485 1.25537 21.2553V30.2917H13.6408H13.9741Z" fill="black"/>
<path d="M26.0259 9.70825V12.9328V13.7239V26.1926H31.2967C35.4035 26.1926 38.7447 22.8515 38.7447 18.7447V9.70825H26.3592H26.0259Z" fill="black"/>
</g>
<defs>
<clipPath id="clip0_223_1627">
<rect width="40" height="40" fill="white"/>
</clipPath>
</defs>
</svg>
