<svg width="40" height="40" viewBox="0 0 40 40" fill="none" xmlns="http://www.w3.org/2000/svg">
<g clip-path="url(#clip0_223_1658)">
<path d="M38.8281 0H1.17188C0.524597 0 0 0.524597 0 1.17188C0 1.81915 0.524597 2.34375 1.17188 2.34375H1.25519V29.4141C1.25519 31.7905 3.18848 33.7241 5.56519 33.7241H18.8281V34.7821C17.9016 35.2222 17.2589 36.167 17.2589 37.2592C17.2589 38.7704 18.4888 40 20 40C21.5112 40 22.7408 38.7704 22.7408 37.2592C22.7408 36.167 22.0984 35.2222 21.1719 34.7821V33.7241H34.4348C36.8115 33.7241 38.7448 31.7905 38.7448 29.4141V2.34375H38.8281C39.4754 2.34375 40 1.81915 40 1.17188C40 0.524597 39.4754 0 38.8281 0ZM20 37.6562C19.7809 37.6562 19.6027 37.478 19.6027 37.2592C19.6027 37.0401 19.7809 36.8622 20 36.8622C20.2191 36.8622 20.397 37.0401 20.397 37.2592C20.397 37.478 20.2191 37.6562 20 37.6562ZM14.9792 27.4481C10.8725 27.4481 7.53113 24.1068 7.53113 20C7.53113 15.8932 10.8725 12.5522 14.9792 12.5522C15.6265 12.5522 16.1511 13.0768 16.1511 13.7241V18.8281H21.2552C21.9025 18.8281 22.4271 19.3527 22.4271 20C22.4271 24.1068 19.086 27.4481 14.9792 27.4481ZM31.297 27.4481H27.5311C26.8842 27.4481 26.3593 26.9232 26.3593 26.2762C26.3593 25.629 26.8842 25.1044 27.5311 25.1044H31.297C31.944 25.1044 32.4689 25.629 32.4689 26.2762C32.4689 26.9232 31.944 27.4481 31.297 27.4481ZM31.297 21.1719H27.5311C26.8842 21.1719 26.3593 20.6473 26.3593 20C26.3593 19.3527 26.8842 18.8281 27.5311 18.8281H31.297C31.944 18.8281 32.4689 19.3527 32.4689 20C32.4689 20.6473 31.944 21.1719 31.297 21.1719ZM31.297 14.8959H27.5311C26.8842 14.8959 26.3593 14.371 26.3593 13.7241C26.3593 13.0768 26.8842 12.5522 27.5311 12.5522H31.297C31.944 12.5522 32.4689 13.0768 32.4689 13.7241C32.4689 14.371 31.944 14.8959 31.297 14.8959ZM31.297 8.62H8.703C8.05603 8.62 7.53113 8.09509 7.53113 7.44812C7.53113 6.80084 8.05603 6.27625 8.703 6.27625H31.297C31.944 6.27625 32.4689 6.80084 32.4689 7.44812C32.4689 8.09509 31.944 8.62 31.297 8.62Z" fill="black"/>
</g>
<defs>
<clipPath id="clip0_223_1658">
<rect width="40" height="40" fill="white"/>
</clipPath>
</defs>
</svg>
