<svg width="40" height="40" viewBox="0 0 40 40" fill="none" xmlns="http://www.w3.org/2000/svg">
<path d="M28.8239 31.0576H23.9062L27.2356 36.8223C27.6297 37.5047 28.3474 37.887 29.0827 37.887C29.4474 37.887 29.8121 37.7929 30.1474 37.5988C31.165 37.0106 31.5121 35.7105 30.9239 34.6929L28.8239 31.0576Z" fill="black"/>
<path d="M9.07683 34.6929C8.48859 35.7105 8.83567 37.0106 9.8533 37.5988C10.1886 37.7929 10.5533 37.887 10.918 37.887C11.6533 37.887 12.3709 37.5047 12.7651 36.8223L16.0945 31.0576H11.1768L9.07683 34.6929Z" fill="black"/>
<path d="M36.2794 2.11304H3.72083C2.31418 2.11304 1.17383 3.25335 1.17383 4.66004C1.17383 6.06668 2.31418 7.20704 3.72083 7.20704H36.2794C37.6861 7.20704 38.8264 6.06668 38.8264 4.66004C38.8264 3.25335 37.6861 2.11304 36.2794 2.11304Z" fill="black"/>
<path d="M4.0293 25.5517C4.0293 27.9458 5.9705 29.8811 8.35874 29.8811H31.6411C34.0293 29.8811 35.9705 27.9458 35.9705 25.5517V8.3811H4.0293V25.5517ZM10.8293 21.4282C11.0175 21.4282 11.1999 21.4517 11.3822 21.5046L15.3705 15.3046C15.1822 15.0046 15.0764 14.6458 15.0764 14.2635C15.0764 13.1458 15.9822 12.234 17.0999 12.234C18.2175 12.234 19.1234 13.1458 19.1234 14.2635C19.1234 14.7517 18.9528 15.1987 18.6587 15.5517L21.594 21.1458C21.7999 21.0752 22.0175 21.034 22.247 21.034C22.5352 21.034 22.8058 21.0929 23.0528 21.1987L27.6058 14.9223C27.3175 14.5752 27.147 14.1281 27.147 13.6399C27.147 12.5223 28.0528 11.6105 29.1705 11.6105C30.2881 11.6105 31.194 12.5223 31.194 13.6399C31.194 14.7576 30.2881 15.6635 29.1705 15.6635C28.9705 15.6635 28.7764 15.634 28.594 15.5752L23.947 21.9693C24.1528 22.287 24.2705 22.6634 24.2705 23.0634C24.2705 24.1752 23.3646 25.087 22.247 25.087C21.1293 25.087 20.2175 24.1752 20.2175 23.0634C20.2175 22.6046 20.3705 22.1811 20.6293 21.8399L17.6764 16.1987C17.494 16.2576 17.2999 16.287 17.0999 16.287C16.7999 16.287 16.5117 16.2223 16.2587 16.0987L12.3705 22.1458C12.6823 22.5046 12.8528 22.9634 12.8528 23.4517C12.8528 24.5693 11.947 25.4752 10.8293 25.4752C9.71167 25.4752 8.80577 24.5693 8.80577 23.4517C8.80576 22.334 9.71167 21.4282 10.8293 21.4282Z" fill="black"/>
</svg>
