<svg width="40" height="40" viewBox="0 0 40 40" fill="none" xmlns="http://www.w3.org/2000/svg">
<path d="M35 35V19.225L36.7837 18.355C37.2588 18.1225 37.5462 17.6088 37.4775 17.085C36.7525 11.5975 34.4188 6.81125 30.5413 2.86125C30.17 2.48375 29.5888 2.39375 29.1138 2.625L25.1813 4.5425C24.8713 4.69375 24.7425 5.0675 24.8938 5.37875L32.0175 19.985C32.1138 20.1813 32.3 20.2938 32.5025 20.32V35H25.9037L21.0687 20.4963L27.8675 17.18L24.58 10.4388L5.8575 19.57C3.46375 20.7363 3.0175 23.96 5 25.735V31.25C5 31.94 5.56 32.5 6.25 32.5C6.94 32.5 7.5 31.94 7.5 31.25V26.6925H7.50375C8.065 26.6925 8.62375 26.565 9.14375 26.3113L15.5338 23.195L11.5988 35H2.5V37.5H37.5V35H35ZM16.7338 27.5H20.765L21.5987 30H15.9L16.7338 27.5ZM18.75 16.25C19.44 16.25 20 16.81 20 17.5C20 18.19 19.44 18.75 18.75 18.75C18.06 18.75 17.5 18.19 17.5 17.5C17.5 16.81 18.06 16.25 18.75 16.25ZM18.8 21.6025L19.9325 25H17.5675L18.6812 21.66L18.8 21.6025ZM14.2338 35L15.0675 32.5H22.4325L23.2663 35H14.2338Z" fill="black"/>
</svg>
