<svg width="40" height="40" viewBox="0 0 40 40" fill="none" xmlns="http://www.w3.org/2000/svg">
<g clip-path="url(#clip0_223_1614)">
<path d="M39.3834 36.5691L36.7856 33.9713C37.5849 32.7723 37.9846 31.3735 37.9846 29.9747C37.9846 25.5784 34.3876 21.9814 29.9913 21.9814C25.595 21.9814 21.998 25.5784 21.998 29.9747C21.998 34.371 25.595 37.968 29.9913 37.968C31.3901 37.968 32.7889 37.5683 33.9879 36.769L36.5857 39.3668C36.9854 39.7664 38.1844 40.5658 39.3834 39.3668C40.1827 38.5675 40.1827 37.3685 39.3834 36.5691ZM29.9913 33.9713C27.7932 33.9713 25.9947 32.1728 25.9947 29.9747C25.9947 27.7766 27.7932 25.9781 29.9913 25.9781C32.1894 25.9781 33.9879 27.7766 33.9879 29.9747C33.9879 32.1728 32.1894 33.9713 29.9913 33.9713Z" fill="black"/>
<path d="M29.9913 0H2.01492C0.815927 0 0.0166016 0.799326 0.0166016 1.99831V37.968C0.0166016 39.167 0.815927 39.9663 2.01492 39.9663H23.3969C20.1996 37.7681 18.0014 34.1712 18.0014 29.9747C18.0014 23.3803 23.3969 17.9848 29.9913 17.9848C30.5908 17.9848 31.3901 17.9848 31.9896 18.1847V1.99831C31.9896 0.799326 31.1903 0 29.9913 0ZM16.0031 15.9865H6.01154C4.81255 15.9865 4.01323 14.9874 4.01323 13.9882C4.01323 12.7892 4.81255 11.9899 6.01154 11.9899H16.0031C17.2021 11.9899 18.0014 12.7892 18.0014 13.9882C18.0014 14.9874 17.2021 15.9865 16.0031 15.9865ZM25.9947 7.99326H6.01154C4.81255 7.99326 4.01323 6.9941 4.01323 5.99494C4.01323 4.79595 4.81255 3.99663 6.01154 3.99663H25.9947C27.1937 3.99663 27.993 4.79595 27.993 5.99494C27.993 6.9941 27.1937 7.99326 25.9947 7.99326Z" fill="black"/>
</g>
<defs>
<clipPath id="clip0_223_1614">
<rect width="40" height="40" fill="white"/>
</clipPath>
</defs>
</svg>
