<svg width="40" height="40" viewBox="0 0 40 40" fill="none" xmlns="http://www.w3.org/2000/svg">
<path d="M7.72735 25.6675C7.72735 25.6675 5.01948 27.8125 4.84754 33.7062C4.84353 33.866 4.87177 34.025 4.93057 34.1736C4.98936 34.3222 5.07751 34.4575 5.18975 34.5713C5.30198 34.6851 5.436 34.7751 5.5838 34.836C5.7316 34.8968 5.89015 34.9273 6.04998 34.9255C11.7522 34.8192 14.0886 32.029 14.0886 32.029C14.9035 31.1705 15.3578 30.032 15.3578 28.8483C15.3578 27.6646 14.9035 26.5261 14.0886 25.6675C12.3321 23.9108 9.72823 23.9962 7.72735 25.6675Z" fill="#282828"/>
<path d="M20.3159 27.7662C21.122 28.8283 21.6146 30.0949 21.7379 31.4225C21.8588 33.4989 21.6753 35.5818 21.1934 37.605C21.1551 37.7727 21.1658 37.9477 21.2242 38.1094C21.2826 38.2711 21.3862 38.4127 21.5228 38.5172C21.6593 38.6216 21.823 38.6847 21.9943 38.6988C22.1656 38.713 22.3374 38.6776 22.4892 38.5969C27.2979 36.0632 31.2685 31.1667 28.7351 24.7795C26.1884 26.3942 23.3109 27.415 20.3159 27.7662Z" fill="#282828"/>
<path d="M8.3314 18.0154C9.66052 18.139 10.9283 18.6328 11.9909 19.4408C12.3373 16.4439 13.3582 13.5644 14.9771 11.0187C8.58827 8.48276 3.69171 12.4556 1.1554 17.2646C1.07525 17.4152 1.04017 17.5856 1.05434 17.7555C1.06852 17.9255 1.13135 18.0877 1.23533 18.2229C1.33891 18.3609 1.48009 18.466 1.64194 18.5258C1.80379 18.5855 1.97945 18.5973 2.14783 18.5598C4.17153 18.0783 6.2547 17.8949 8.3314 18.0154Z" fill="#282828"/>
<path d="M37.7614 3.34291C37.7091 3.00467 37.5504 2.69189 37.3083 2.44989C37.0663 2.20789 36.7535 2.04926 36.4153 1.99697C34.448 1.70084 32.4481 1.6926 30.4785 1.97254C30.712 3.82878 31.5571 5.55438 32.8805 6.87684C34.2038 8.19931 35.93 9.0433 37.7864 9.27554C38.0657 7.30724 38.0573 5.30879 37.7614 3.34291Z" fill="#282828"/>
<path d="M28.8211 2.28003C25.8643 2.95991 23.138 4.40443 20.9148 6.46903C13.6183 13.225 13.6445 20.0745 13.6445 20.0745L19.6838 26.1138C19.6838 26.1138 26.5338 26.1402 33.2893 18.8439C35.3548 16.6198 36.7996 13.8921 37.4791 10.9338C35.2879 10.6373 33.2545 9.63031 31.6906 8.06716C30.1267 6.50402 29.1187 4.47107 28.8211 2.28003ZM26.039 17.2393C25.3418 17.2393 24.6603 17.0326 24.0806 16.6453C23.5009 16.2579 23.0491 15.7074 22.7823 15.0633C22.5155 14.4192 22.4457 13.7104 22.5817 13.0266C22.7177 12.3429 23.0534 11.7148 23.5464 11.2218C24.0394 10.7288 24.6675 10.3931 25.3513 10.2571C26.0351 10.1211 26.7438 10.1909 27.3879 10.4577C28.032 10.7245 28.5826 11.1763 28.9699 11.756C29.3572 12.3356 29.564 13.0172 29.564 13.7143C29.564 14.1773 29.4728 14.6356 29.2956 15.0633C29.1185 15.491 28.8588 15.8796 28.5315 16.2069C28.2042 16.5342 27.8156 16.7939 27.3879 16.971C26.9603 17.1482 26.5019 17.2393 26.039 17.2393Z" fill="#282828"/>
</svg>
