<svg width="40" height="40" viewBox="0 0 40 40" fill="none" xmlns="http://www.w3.org/2000/svg">
<g clip-path="url(#clip0_223_1661)">
<path d="M35.7974 9.17996L20.6816 0.187383C20.2616 -0.0624609 19.7384 -0.0624609 19.3183 0.187383L4.20242 9.17996C3.79844 9.42035 3.55078 9.85582 3.55078 10.3259V15.4593C3.55078 26.2713 9.79766 36.1464 19.5185 39.91C19.828 40.0299 20.1716 40.03 20.4813 39.91C30.1786 36.1558 36.449 26.3021 36.449 15.4593V10.3259C36.4491 9.85574 36.2015 9.42035 35.7974 9.17996ZM26.5872 17.0039L18.2305 25.3606C17.7098 25.8813 16.8656 25.8813 16.3449 25.3606L13.4121 22.4279C12.8914 21.9072 12.8914 21.0629 13.4121 20.5422C13.9328 20.0216 14.7771 20.0216 15.2977 20.5422L17.2877 22.5321L24.7016 15.1182C25.2222 14.5976 26.0665 14.5976 26.5872 15.1182C27.108 15.639 27.108 16.4832 26.5872 17.0039Z" fill="black"/>
</g>
<defs>
<clipPath id="clip0_223_1661">
<rect width="40" height="40" fill="white"/>
</clipPath>
</defs>
</svg>
