<svg width="40" height="40" viewBox="0 0 40 40" fill="none" xmlns="http://www.w3.org/2000/svg">
<g clip-path="url(#clip0_223_1649)">
<path d="M23.5324 4.54445C23.5324 3.42898 22.6249 2.52148 21.5094 2.52148H18.4907C17.3753 2.52148 16.4678 3.42898 16.4678 4.54445V7.56891H23.5324V4.54445Z" fill="black"/>
<path d="M20.2961 15.1777L32.0223 18.2416V10.6799C32.0223 10.2568 31.6781 9.9126 31.255 9.9126H8.74488C8.32176 9.9126 7.97754 10.2568 7.97754 10.6799V18.2416L19.7037 15.1777C19.8979 15.127 20.1019 15.127 20.2961 15.1777Z" fill="black"/>
<path d="M38.828 35.1347C37.5347 35.1347 36.9512 34.8442 36.2125 34.4763C35.8657 34.3036 35.5 34.1215 35.0636 33.9665C34.4577 33.7511 33.7152 33.5877 32.6978 33.5734L36.9884 22.7724C37.0834 22.5159 37.0075 22.3024 36.9534 22.1975C36.8988 22.0917 36.7673 21.9038 36.4991 21.8337L19.9999 17.5227L3.50078 21.8337C3.2325 21.9038 3.10102 22.0917 3.04656 22.1975C2.99242 22.3025 2.91641 22.5162 3.01164 22.7728L7.29266 33.5736C6.27563 33.5889 5.53391 33.7533 4.92844 33.9694C4.4957 34.1239 4.13234 34.3047 3.78773 34.4764C3.04891 34.8442 2.46539 35.1348 1.17188 35.1348C0.524687 35.1348 0 35.6595 0 36.3067C0 36.9539 0.524687 37.4786 1.17188 37.4786C3.01656 37.4786 3.98125 36.9983 4.83234 36.5745C5.16398 36.4094 5.46469 36.2602 5.81195 36.1455C6.23844 36.0047 6.73523 35.9161 7.4482 35.9161C7.61094 35.9161 7.76234 35.9208 7.90438 35.9296C8.89094 35.9905 9.4182 36.253 10.0641 36.5746C10.9152 36.9983 11.8798 37.4786 13.7245 37.4786C15.5691 37.4786 16.5337 36.9983 17.3849 36.5746C18.1237 36.2068 18.7072 35.9161 20.0005 35.9161C21.2939 35.9161 21.8773 36.2067 22.6161 36.5746C23.4672 36.9983 24.4318 37.4786 26.2764 37.4786C28.121 37.4786 29.0856 36.9983 29.9367 36.5746C30.5846 36.252 31.1133 35.989 32.1058 35.929C32.245 35.9207 32.3932 35.9161 32.5523 35.9161C33.2575 35.9161 33.7511 36.0029 34.1744 36.1411C34.5275 36.2564 34.832 36.4073 35.1679 36.5746C36.019 36.9983 36.9836 37.4786 38.8282 37.4786C39.4754 37.4786 40.0001 36.954 40.0001 36.3068C40.0001 35.6596 39.4752 35.1347 38.828 35.1347ZM9.16578 23.5199L19.7037 20.7665C19.8979 20.7158 20.102 20.7158 20.2962 20.7665L30.8341 23.5199C31.4602 23.6835 31.8352 24.3238 31.6716 24.95C31.534 25.4768 31.0588 25.8259 30.5387 25.8259C30.4406 25.8259 30.3409 25.8135 30.2416 25.7875L19.9999 23.1115L9.75828 25.7875C9.13211 25.9511 8.4918 25.5761 8.3282 24.95C8.16461 24.3238 8.53961 23.6835 9.16578 23.5199Z" fill="black"/>
</g>
<defs>
<clipPath id="clip0_223_1649">
<rect width="40" height="40" fill="white"/>
</clipPath>
</defs>
</svg>
