<svg width="40" height="40" viewBox="0 0 40 40" fill="none" xmlns="http://www.w3.org/2000/svg">
<g clip-path="url(#clip0_223_1651)">
<path d="M14.1401 11.7969C14.1401 11.1497 13.6154 10.625 12.9683 10.625H11.7183V5.9375C11.7183 5.29031 11.1936 4.76562 10.5464 4.76562C9.8992 4.76562 9.37451 5.29031 9.37451 5.9375V10.625H8.28076C7.63357 10.625 7.10889 11.1497 7.10889 11.7969V13.0469H14.14V11.7969H14.1401Z" fill="black"/>
<path d="M2.42188 15.3906H14.1403V21.1719H2.42188V15.3906Z" fill="black"/>
<path d="M38.8271 32.8906H37.3666C36.8656 31.0255 37.0285 29.061 37.8445 27.2866L39.8919 22.8333C40.2474 22.0599 39.6834 21.1719 38.8271 21.1719H32.8898C32.4459 21.1719 32.0401 21.4227 31.8416 21.8197L30.9937 23.5156H1.17188C0.524687 23.5156 0 24.0403 0 24.6875V27.0559C0 28.9809 1.56594 30.5469 3.49078 30.5469H3.59359V32.8906H1.17188C0.524687 32.8906 0 33.4153 0 34.0625C0 34.7097 0.524687 35.2344 1.17188 35.2344H38.8272C39.4744 35.2344 39.9991 34.7097 39.9991 34.0625C39.9991 33.4153 39.4743 32.8906 38.8271 32.8906ZM32.4991 26.3281C33.1463 26.3281 33.671 26.8528 33.671 27.5C33.671 28.1472 33.1463 28.6719 32.4991 28.6719C31.852 28.6719 31.3273 28.1472 31.3273 27.5C31.3273 26.8528 31.852 26.3281 32.4991 26.3281Z" fill="black"/>
<path d="M23.5151 11.6406H20.3901C19.9587 11.6406 19.6089 11.9904 19.6089 12.4219V15.3906H23.5151V11.6406Z" fill="black"/>
<path d="M29.7651 12.4219C29.7651 11.9904 29.4153 11.6406 28.9838 11.6406H25.8589V15.3906H29.7651V12.4219Z" fill="black"/>
<path d="M16.4839 17.7344H20.3901V21.1719H16.4839V17.7344Z" fill="black"/>
<path d="M22.7339 17.7344H26.6401V21.1719H22.7339V17.7344Z" fill="black"/>
<path d="M28.9834 21.1719H29.5451C29.628 21.0749 30.3708 18.8281 32.8896 18.8281V17.7344H28.9834V21.1719Z" fill="black"/>
</g>
<defs>
<clipPath id="clip0_223_1651">
<rect width="40" height="40" fill="white"/>
</clipPath>
</defs>
</svg>
