<svg width="40" height="40" viewBox="0 0 40 40" fill="none" xmlns="http://www.w3.org/2000/svg">
<g clip-path="url(#clip0_223_1615)">
<path d="M32.8918 25.9362H25.8599V24.7642C25.8599 22.8255 24.2828 21.2483 22.344 21.2483H17.6561C15.7174 21.2483 14.1402 22.8255 14.1402 24.7642V25.9362H7.1083C4.51924 25.9362 2.42041 28.0349 2.42041 30.6241V31.796C2.42041 32.4433 2.94518 32.968 3.59236 32.968H36.4078C37.055 32.968 37.5797 32.4432 37.5797 31.796V30.6241C37.5797 28.0349 35.4809 25.9362 32.8918 25.9362Z" fill="black"/>
<path d="M25.2624 1.90667C23.3945 0.344406 20.9292 -0.301063 18.4937 0.131515C15.2547 0.711828 12.5639 3.44745 11.9494 6.67378C11.5259 8.89526 11.9883 11.2006 13.2519 13.0238C14.3498 14.6082 15.1842 16.5464 15.7809 18.9043H24.2462V18.9044C24.8106 16.9399 25.7351 14.7856 27.1313 12.3369C27.8329 11.1066 28.2038 9.70339 28.2038 8.27847C28.2038 5.84292 27.1313 3.4712 25.2624 1.90667Z" fill="black"/>
<path d="M4.76416 35.312V36.484C4.76416 38.4227 6.34135 39.9999 8.2801 39.9999H31.7196C33.6584 39.9999 35.2356 38.4227 35.2356 36.484V35.312H4.76416Z" fill="black"/>
</g>
<defs>
<clipPath id="clip0_223_1615">
<rect width="40" height="40" fill="white"/>
</clipPath>
</defs>
</svg>
