<svg width="40" height="40" viewBox="0 0 40 40" fill="none" xmlns="http://www.w3.org/2000/svg">
<g clip-path="url(#clip0_223_1662)">
<path d="M23.75 0H4.58333C2.05 0 0 2.05 0 4.58333V30.4167C0 32.95 2.05 35 4.58333 35H18.1667C16.7667 32.7833 15.8333 30.1667 15.8333 27.1667V23.1C15.5833 23.25 15.3 23.3333 15 23.3333H6.66667C5.75 23.3333 5 22.5833 5 21.6667C5 20.75 5.75 20 6.66667 20H15C15.3167 20 15.6 20.0833 15.85 20.2333C15.9167 18.8167 16.5833 17.5167 17.6333 16.6667H6.66667C5.75 16.6667 5 15.9167 5 15C5 14.0833 5.75 13.3333 6.66667 13.3333H21.6667C22.3667 13.3333 22.9667 13.7667 23.2167 14.3833L27.9667 12.7667C28.0833 12.7167 28.2 12.6833 28.3333 12.6667V4.58333C28.3333 2.05 26.2833 0 23.75 0V0ZM13.3333 10H6.66667C5.75 10 5 9.25 5 8.33333C5 7.41667 5.75 6.66667 6.66667 6.66667H13.3333C14.25 6.66667 15 7.41667 15 8.33333C15 9.25 14.25 10 13.3333 10Z" fill="black"/>
<path d="M38.87 18.8984L30.12 15.9218C29.7717 15.8034 29.3934 15.8034 29.045 15.9218L20.295 18.8984C19.62 19.1284 19.165 19.7634 19.165 20.4768V27.1734C19.165 35.6184 28.53 39.6984 28.9284 39.8684C29.1384 39.9568 29.3617 40.0001 29.5834 40.0001C29.805 40.0001 30.0284 39.9568 30.2367 39.8668C30.635 39.6968 40 35.6184 40 27.1734V20.4768C40 19.7618 39.5467 19.1284 38.87 18.8984ZM35.5 25.1668L30.5 31.8334C30.21 32.2201 29.7684 32.4618 29.285 32.4951C29.245 32.4984 29.205 32.5001 29.1667 32.5001C28.725 32.5001 28.3017 32.3268 27.9884 32.0118L24.655 28.6784C24.0034 28.0268 24.0034 26.9734 24.655 26.3218C25.3067 25.6701 26.36 25.6701 27.0117 26.3218L28.9867 28.2968L32.8334 23.1668C33.385 22.4318 34.43 22.2801 35.165 22.8334C35.9034 23.3851 36.0534 24.4301 35.5 25.1668Z" fill="black"/>
</g>
<defs>
<clipPath id="clip0_223_1662">
<rect width="40" height="40" fill="white"/>
</clipPath>
</defs>
</svg>
