<svg width="40" height="40" viewBox="0 0 40 40" fill="none" xmlns="http://www.w3.org/2000/svg">
<path d="M23.7346 9.96851C18.2033 9.96851 13.7031 14.4686 13.7031 19.9999C13.7031 25.5312 18.2033 30.0313 23.7346 30.0313C29.2659 30.0313 33.766 25.5312 33.766 19.9999C33.766 14.4686 29.2659 9.96851 23.7346 9.96851ZM28.4649 21.1718H22.5627V12.9459H24.9065V18.828H28.4649V21.1718Z" fill="black"/>
<path d="M23.7792 3.73444C20.2105 3.72483 16.9091 4.86529 14.223 6.8049H5.35344C3.95508 6.8049 2.82156 7.9385 2.82156 9.33678C2.82156 10.7351 3.95516 11.8687 5.35344 11.8687H9.64445C8.82687 13.2824 8.21664 14.8308 7.85359 16.4721H2.53188C1.13359 16.4722 0 17.6057 0 19.004C0 20.4024 1.13359 21.5359 2.53188 21.5359H7.54156C7.69281 23.1507 8.08016 24.6966 8.66875 26.1394H6.86031C5.46195 26.1394 4.32844 27.273 4.32844 28.6712C4.32844 30.0696 5.46203 31.2031 6.86031 31.2031H11.9427C14.9061 34.3212 19.0931 36.2654 23.7345 36.2654C32.7177 36.2654 40 28.9832 40 20C40 11.013 32.7661 3.75865 23.7792 3.73444ZM23.7345 32.3751C16.9108 32.3751 11.3593 26.8236 11.3593 19.9999C11.3593 13.1762 16.9108 7.62475 23.7345 7.62475C30.5581 7.62475 36.1096 13.1762 36.1096 19.9999C36.1096 26.8236 30.5581 32.3751 23.7345 32.3751Z" fill="black"/>
</svg>
