<svg width="40" height="40" viewBox="0 0 40 40" fill="none" xmlns="http://www.w3.org/2000/svg">
<path d="M39.6567 27.4788C39.437 27.2588 39.1388 27.1355 38.8281 27.1355H1.17188C0.860901 27.1355 0.562744 27.2588 0.343018 27.4788C0.123291 27.6985 0 27.997 0 28.3077L0.000305176 29.0905C0.0012207 31.8895 2.27936 34.1667 5.07843 34.1667H34.9219C37.7219 34.1667 40 31.8889 40 29.0889V28.3074C40 27.9967 39.8767 27.6985 39.6567 27.4788Z" fill="black"/>
<path d="M17.2648 21.9885C15.0023 20.9597 13.4123 18.6956 13.3543 16.0845C13.3021 13.735 14.4697 11.6555 16.2678 10.4339C16.7827 10.0842 17.4794 10.4635 17.4794 11.0861V15.241C17.4794 16.1041 18.1791 16.8035 19.0419 16.8035H20.9553C21.8184 16.8035 22.5178 16.1041 22.5178 15.241V11.0864C22.5178 10.4547 23.2252 10.0887 23.7465 10.4452C25.4963 11.6421 26.645 13.6532 26.645 15.9332C26.645 18.6285 25.0395 20.9478 22.7336 21.9906L22.7333 24.7918H36.83V7.17188C36.83 6.5246 36.3051 6 35.6581 6H4.34033C3.69305 6 3.16846 6.5246 3.16846 7.17188V24.7918H17.2645L17.2648 21.9885Z" fill="black"/>
</svg>
